<svg width="27" height="31" viewBox="0 0 27 31" fill="none" xmlns="http://www.w3.org/2000/svg">
<path fill-rule="evenodd" clip-rule="evenodd" d="M23.1865 7.75H3.81152C3.27677 7.75 2.84277 7.31697 2.84277 6.78125C2.84277 6.2465 3.27677 5.8125 3.81152 5.8125H23.1865C23.7213 5.8125 24.1553 6.2465 24.1553 6.78125C24.1553 7.31697 23.7213 7.75 23.1865 7.75ZM22.2178 27.125C22.2178 28.1945 21.3498 29.0625 20.2803 29.0625H6.71777C5.64827 29.0625 4.78027 28.1945 4.78027 27.125V9.6875H22.2178V27.125ZM10.5928 2.90625C10.5928 2.37053 11.0268 1.9375 11.5615 1.9375H15.4365C15.9713 1.9375 16.4053 2.37053 16.4053 2.90625V3.875H10.5928V2.90625ZM24.1553 3.875H18.3428V1.9375C18.3428 0.868 17.4748 0 16.4053 0H10.5928C9.52327 0 8.65527 0.868 8.65527 1.9375V3.875H2.84277C1.77327 3.875 0.905273 4.743 0.905273 5.8125V7.75C0.905273 8.8195 1.77327 9.6875 2.84277 9.6875V27.125C2.84277 29.265 4.5778 31 6.71777 31H20.2803C22.4202 31 24.1553 29.265 24.1553 27.125V9.6875C25.2248 9.6875 26.0928 8.8195 26.0928 7.75V5.8125C26.0928 4.743 25.2248 3.875 24.1553 3.875ZM13.499 27.125C14.0338 27.125 14.4678 26.692 14.4678 26.1562V14.5312C14.4678 13.9965 14.0338 13.5625 13.499 13.5625C12.9643 13.5625 12.5303 13.9965 12.5303 14.5312V26.1562C12.5303 26.692 12.9643 27.125 13.499 27.125ZM8.65527 27.125C9.19002 27.125 9.62402 26.692 9.62402 26.1562V14.5312C9.62402 13.9965 9.19002 13.5625 8.65527 13.5625C8.12052 13.5625 7.68652 13.9965 7.68652 14.5312V26.1562C7.68652 26.692 8.12052 27.125 8.65527 27.125ZM18.3428 27.125C18.8775 27.125 19.3115 26.692 19.3115 26.1562V14.5312C19.3115 13.9965 18.8775 13.5625 18.3428 13.5625C17.808 13.5625 17.374 13.9965 17.374 14.5312V26.1562C17.374 26.692 17.808 27.125 18.3428 27.125Z" fill="#AEB4C1"/>
</svg>
