<svg width="57" height="57" viewBox="0 0 57 57" fill="none" xmlns="http://www.w3.org/2000/svg">
<circle cx="28.5" cy="28.5" r="28.5" fill="#0C0C0E"/>
<path d="M39.4 14H18.6C17.17 14 16 15.1625 16 16.5833V42.4167C16 43.8375 17.17 45 18.6 45H39.4C40.83 45 42 43.8375 42 42.4167V16.5833C42 15.1625 40.83 14 39.4 14ZM23.8 39.8333C23.8 40.5437 23.215 41.125 22.5 41.125H19.9C19.185 41.125 18.6 40.5437 18.6 39.8333V39.1875C18.6 38.4771 19.185 37.8958 19.9 37.8958H22.5C23.215 37.8958 23.8 38.4771 23.8 39.1875V39.8333ZM23.8 34.6667C23.8 35.3771 23.215 35.9583 22.5 35.9583H19.9C19.185 35.9583 18.6 35.3771 18.6 34.6667V34.0208C18.6 33.3104 19.185 32.7292 19.9 32.7292H22.5C23.215 32.7292 23.8 33.3104 23.8 34.0208V34.6667ZM23.8 29.5C23.8 30.2104 23.215 30.7917 22.5 30.7917H19.9C19.185 30.7917 18.6 30.2104 18.6 29.5V28.8542C18.6 28.1437 19.185 27.5625 19.9 27.5625H22.5C23.215 27.5625 23.8 28.1437 23.8 28.8542V29.5ZM31.6 39.8333C31.6 40.5437 31.015 41.125 30.3 41.125H27.7C26.985 41.125 26.4 40.5437 26.4 39.8333V39.1875C26.4 38.4771 26.985 37.8958 27.7 37.8958H30.3C31.015 37.8958 31.6 38.4771 31.6 39.1875V39.8333ZM31.6 34.6667C31.6 35.3771 31.015 35.9583 30.3 35.9583H27.7C26.985 35.9583 26.4 35.3771 26.4 34.6667V34.0208C26.4 33.3104 26.985 32.7292 27.7 32.7292H30.3C31.015 32.7292 31.6 33.3104 31.6 34.0208V34.6667ZM31.6 29.5C31.6 30.2104 31.015 30.7917 30.3 30.7917H27.7C26.985 30.7917 26.4 30.2104 26.4 29.5V28.8542C26.4 28.1437 26.985 27.5625 27.7 27.5625H30.3C31.015 27.5625 31.6 28.1437 31.6 28.8542V29.5ZM39.4 39.8333C39.4 40.5437 38.815 41.125 38.1 41.125H35.5C34.785 41.125 34.2 40.5437 34.2 39.8333V39.1875C34.2 38.4771 34.785 37.8958 35.5 37.8958H38.1C38.815 37.8958 39.4 38.4771 39.4 39.1875V39.8333ZM39.4 34.6667C39.4 35.3771 38.815 35.9583 38.1 35.9583H35.5C34.785 35.9583 34.2 35.3771 34.2 34.6667V34.0208C34.2 33.3104 34.785 32.7292 35.5 32.7292H38.1C38.815 32.7292 39.4 33.3104 39.4 34.0208V34.6667ZM39.4 29.5C39.4 30.2104 38.815 30.7917 38.1 30.7917H35.5C34.785 30.7917 34.2 30.2104 34.2 29.5V28.8542C34.2 28.1437 34.785 27.5625 35.5 27.5625H38.1C38.815 27.5625 39.4 28.1437 39.4 28.8542V29.5ZM39.4 23.6875C39.4 24.3979 38.815 24.9792 38.1 24.9792H19.9C19.185 24.9792 18.6 24.3979 18.6 23.6875V18.5208C18.6 17.8104 19.185 17.2292 19.9 17.2292H38.1C38.815 17.2292 39.4 17.8104 39.4 18.5208V23.6875Z" fill="white"/>
</svg>
