<svg width="57" height="57" viewBox="0 0 57 57" fill="none" xmlns="http://www.w3.org/2000/svg">
<circle cx="28.5" cy="28.5" r="28.5" fill="white"/>
<path d="M48.4497 38.1473H42.0562V20.795C42.0562 19.9355 41.3569 19.2363 40.4976 19.2363H28.9175V18.6949H29.6907C30.0151 18.6949 30.2779 18.4319 30.2779 18.1076V9.58728C30.2779 9.26291 30.0151 9 29.6907 9H26.8179C26.4935 9 26.2306 9.26298 26.2306 9.58728V18.1076C26.2306 18.432 26.4935 18.6949 26.8179 18.6949H27.743V19.2363H15.5586C14.6992 19.2363 14 19.9355 14 20.795V39.4301C14 40.8471 15.1529 42 16.5699 42H23.3472H41.4687H46.6704C47.9753 42 49.0369 40.9384 49.0369 39.6335V38.7346C49.0369 38.4103 48.7739 38.1473 48.4497 38.1473ZM27.4053 17.5203V10.1746H29.1034V17.5204H27.4053V17.5203ZM28.9175 22.9706V22.4042H38.8881V36.154H17.168V22.4042H27.7429V22.9706C27.7429 23.19 27.5644 23.3686 27.3448 23.3686H20.614C19.7469 23.3686 19.0414 24.074 19.0414 24.9412V27.2577C19.0414 28.1249 19.7469 28.8303 20.614 28.8303H21.2731V32.6533C21.2731 33.2864 21.5939 33.8608 22.1312 34.1898C22.682 34.5273 23.3581 34.5513 23.9402 34.2544C24.0302 34.2084 24.18 34.1473 24.4387 34.1473C24.8673 34.1473 25.048 34.3009 25.3474 34.5555C25.6888 34.8458 26.1564 35.2436 27.017 35.2436C27.8774 35.2436 28.3451 34.8458 28.6865 34.5555C28.9859 34.3009 29.1666 34.1473 29.5952 34.1473C30.0239 34.1473 30.2046 34.3009 30.504 34.5555C30.8455 34.8459 31.3132 35.2436 32.1738 35.2436C33.0344 35.2436 33.502 34.8459 33.8435 34.5555C33.9634 34.4536 34.0767 34.3573 34.1935 34.2877C34.9004 33.867 35.3396 33.0879 35.3396 32.2546V31.3556H35.9409C36.9202 31.3556 37.7168 30.559 37.7168 29.5797V26.9063C37.7168 25.9271 36.9202 25.1304 35.9409 25.1304H23.0489C22.0696 25.1304 21.273 25.927 21.273 26.9063V27.6557H20.614C20.3944 27.6557 20.2159 27.4772 20.2159 27.2577V24.9411C20.2159 24.7217 20.3944 24.5431 20.614 24.5431H27.3448C28.212 24.5432 28.9175 23.8377 28.9175 22.9706ZM22.6434 27.6557H22.4477V26.9063C22.4477 26.5748 22.7174 26.305 23.0489 26.305C23.3805 26.305 23.6501 26.5747 23.6501 26.9063V29.5797C23.6501 29.9112 23.3805 30.181 23.0489 30.181C22.7174 30.181 22.4477 29.9113 22.4477 29.5797V28.8304H22.6434C22.9679 28.8304 23.2307 28.5674 23.2307 28.2431C23.2308 27.9186 22.9678 27.6557 22.6434 27.6557ZM24.7198 26.305H35.941C36.2725 26.305 36.5422 26.5747 36.5422 26.9063V29.5797C36.5422 29.9112 36.2725 30.181 35.941 30.181H24.7198C24.7876 29.9931 24.8247 29.7907 24.8247 29.5797V26.9063C24.8247 26.6953 24.7875 26.4929 24.7198 26.305ZM34.1651 31.3555V32.2545C34.1651 32.6759 33.9458 33.0683 33.5928 33.2783C33.391 33.3984 33.2271 33.5377 33.0826 33.6607C32.7831 33.9152 32.6024 34.0689 32.1738 34.0689C31.7451 34.0689 31.5643 33.9152 31.2649 33.6606C30.9235 33.3702 30.4558 32.9726 29.5952 32.9726C28.7347 32.9726 28.267 33.3703 27.9256 33.6607C27.6262 33.9152 27.4455 34.0689 27.0169 34.0689C26.5882 34.0689 26.4076 33.9152 26.1082 33.6607C25.7668 33.3703 25.2991 32.9726 24.4386 32.9726C24.0544 32.9726 23.7167 33.0496 23.4061 33.2081C23.1914 33.3178 22.944 33.3104 22.7445 33.1881C22.5559 33.0725 22.4477 32.8777 22.4477 32.6533V31.2506C22.6355 31.3185 22.8379 31.3555 23.0488 31.3555H34.1651ZM15.1746 20.795C15.1746 20.5832 15.3469 20.4109 15.5587 20.4109H27.743V21.2297H16.5807C16.2563 21.2297 15.9934 21.4927 15.9934 21.8169V36.7412C15.9934 37.0656 16.2563 37.3285 16.5807 37.3285H39.4754C39.7998 37.3285 40.0627 37.0655 40.0627 36.7412V21.8169C40.0627 21.4925 39.7998 21.2296 39.4754 21.2296H28.9175V20.4108H40.4975C40.7092 20.4108 40.8815 20.5831 40.8815 20.7949V38.1472H15.1746V20.795ZM16.5699 40.8254C15.8005 40.8254 15.1746 40.1994 15.1746 39.43V39.3219H20.9808V39.6334C20.9808 40.0679 21.0989 40.475 21.3041 40.8254H16.5699ZM46.6704 40.8254H41.4688H23.3472C22.69 40.8254 22.1553 40.2907 22.1553 39.6334V39.3219H41.4687H47.8622V39.6334C47.8622 40.2907 47.3276 40.8254 46.6704 40.8254Z" fill="#0C0C0E"/>
</svg>
