<svg width="35" height="24" viewBox="0 0 35 24" fill="none" xmlns="http://www.w3.org/2000/svg">
<path d="M33.5364 6.22084L19.3455 0.361678C18.7091 0.0723367 17.9455 0 17.5 0C16.9909 0 16.2909 0.0723367 15.6545 0.361678L1.46364 6.22084C0.127273 6.79952 0 7.81221 0 8.24623C0 8.68024 0.127273 9.69293 1.46364 10.2716L2.1 10.4886V16.4925C2.1 17.3605 2.67273 18.0115 3.43636 18.0115C4.2 18.0115 4.77273 17.3605 4.77273 16.4925V11.5737L7.25455 12.5863V19.3859C7.25455 22.3516 13.3636 23.7983 17.5 23.7983C21.6364 23.7983 27.7455 22.4239 27.7455 19.3859V12.6587L33.5364 10.2716C34.8727 9.76527 35 8.68024 35 8.24623C35 7.81221 34.8727 6.79952 33.5364 6.22084ZM25.1364 19.0242C24.3727 19.6029 21.5091 20.7602 17.5636 20.7602C13.6182 20.7602 10.6909 19.6029 9.99091 19.0242V13.7437L15.7182 16.1308C16.3545 16.4201 17.1182 16.4925 17.5636 16.4925C18.0091 16.4925 18.7727 16.4201 19.4091 16.1308L25.1364 13.7437V19.0242ZM18.4545 13.2374C18.0091 13.4544 17.0545 13.4544 16.6091 13.2374L4.45455 8.24623L16.5455 3.25509C16.9909 3.03808 17.9455 3.03808 18.3909 3.25509L30.5455 8.24623L18.4545 13.2374Z" fill="#AAD026"/>
</svg>
