<svg width="57" height="57" viewBox="0 0 57 57" fill="none" xmlns="http://www.w3.org/2000/svg">
<circle cx="28.5" cy="28.5" r="28.5" fill="#0C0C0E"/>
<path d="M28 22C31.325 22 34.125 24.275 34.825 27.425C35 28.3 36.05 29 36.925 28.65C37.8 28.475 38.5 27.425 38.15 26.55C37.1 21.65 32.9 18.5 28 18.5C22.225 18.5 17.5 23.225 17.5 29C17.5 34.425 21.7 38.975 27.125 39.5H27.3C28.175 39.5 28.875 38.8 29.05 37.925C29.225 37.05 28.35 36.175 27.475 36C23.975 35.65 21 32.5 21 29C21 25.15 24.15 22 28 22Z" fill="white"/>
<path d="M28 43C20.3 43 14 36.7 14 29C14 21.3 20.3 15 28 15C35.35 15 41.475 20.775 42 28.125C42 29.175 42.875 29.875 43.925 29.7C44.975 29.7 45.675 28.825 45.5 27.775C44.8 18.675 37.275 11.5 28 11.5C18.375 11.5 10.5 19.375 10.5 29C10.5 38.625 18.375 46.5 28 46.5C29.05 46.5 29.75 45.8 29.75 44.75C29.75 43.7 29.05 43 28 43Z" fill="white"/>
<path d="M44.275 33.375C44.1 33.2 43.75 33.025 43.575 33.025L32.2 29.175C31.15 28.825 29.925 29.175 29.05 30.05C28.175 30.925 28 32.15 28.525 33.2L33.775 44.75C34.3 45.8 35.35 46.5 36.4 46.5C36.575 46.5 36.75 46.5 36.925 46.5C38.325 46.325 39.2 45.275 39.375 43.875L39.9 39.675L43.4 38.625C44.45 38.275 45.325 37.4 45.5 36.175C45.675 35.125 45.15 33.9 44.275 33.375ZM38.675 36.35C37.45 36.7 36.75 37.575 36.575 38.8L36.225 41.425L32.375 32.85L40.775 35.65L38.675 36.35Z" fill="white"/>
</svg>
