<svg width="57" height="57" viewBox="0 0 57 57" fill="none" xmlns="http://www.w3.org/2000/svg">
<circle cx="28.5" cy="28.5" r="28.5" fill="white"/>
<path d="M41.099 25.9912L29.8771 14.8961L29.8796 14.9013C28.6149 13.6337 26.948 12.9972 25.2891 13C23.6327 12.9972 21.9657 13.6337 20.7009 14.9013C19.4337 16.1658 18.7974 17.83 18.7998 19.4895C18.7974 21.1482 19.4336 22.8149 20.7009 24.0798L23.3493 26.6997C23.2695 26.6973 23.1895 26.6973 23.1099 26.6973C20.9379 26.6973 18.9648 27.2435 17.4886 28.1681C16.7517 28.6317 16.136 29.1908 15.6981 29.8425C15.2578 30.4919 15 31.2388 15 32.0272V36.4529C15 37.241 15.2578 37.9883 15.6981 38.6376C16.3577 39.6139 17.406 40.3889 18.6839 40.9332C19.9642 41.4765 21.4816 41.7828 23.1099 41.7857C25.2788 41.7828 27.2521 41.237 28.7281 40.312C29.4674 39.8509 30.0805 39.2895 30.521 38.6377C30.9592 37.9883 31.2167 37.241 31.2167 36.453V34.4771L31.9225 35.1757L31.9201 35.1701C33.1848 36.4373 34.8517 37.0742 36.5105 37.0714C38.1672 37.0742 39.8339 36.4373 41.0989 35.1729C42.3662 33.9052 43 32.2413 43 30.5819C43.0001 28.9227 42.3662 27.2584 41.099 25.9912ZM22.5611 21.3594C21.4869 20.2828 21.4869 18.5129 22.5764 17.4234C23.1019 16.8978 23.8026 16.6068 24.5499 16.6068L22.5611 21.3594ZM16.288 32.0272C16.2905 31.5197 16.4477 31.0356 16.7649 30.5612C17.0432 30.1469 17.4526 29.7498 17.9651 29.3971L27.8215 35.1652C27.5974 35.2885 27.3604 35.4046 27.1103 35.5102C25.9795 35.9919 24.5987 36.2753 23.11 36.2753C21.1208 36.2781 19.3279 35.7678 18.0633 34.9717C17.4296 34.5727 16.9298 34.1059 16.5948 33.6065C16.4709 33.4207 16.3681 33.2329 16.2881 33.0398L16.288 32.0272ZM29.9287 36.453C29.9287 36.9605 29.7689 37.445 29.4523 37.9186C28.9779 38.6247 28.1357 39.2789 27.0306 39.7482C25.928 40.217 24.5729 40.4979 23.1099 40.4979C21.157 40.4979 19.3976 39.9953 18.1741 39.2226C17.5608 38.8384 17.0815 38.3878 16.7649 37.9186C16.4477 37.445 16.2905 36.9605 16.288 36.453V34.6267C16.9114 35.3168 17.7617 35.8916 18.7637 36.3164C20.0157 36.8476 21.5072 37.1515 23.1099 37.1515C25.2454 37.1515 27.1826 36.6126 28.6199 35.7109C29.1248 35.3969 29.5654 35.0337 29.9287 34.629V36.453ZM29.9287 33.0398C29.9134 33.0784 29.8977 33.1143 29.8771 33.153C29.8078 33.3078 29.7226 33.4569 29.622 33.6064C29.4057 33.9309 29.1145 34.2377 28.7694 34.5235L19.011 28.8147C19.0703 28.7889 19.1271 28.7578 19.1862 28.7348C20.2888 28.2661 21.644 27.9851 23.11 27.9851C23.6868 27.9851 24.2461 28.029 24.7791 28.1117C26.0518 28.3048 27.18 28.7167 28.043 29.2576C28.1486 29.3221 28.2492 29.3919 28.3443 29.4616C28.8106 29.7937 29.1791 30.1621 29.4393 30.5463C29.4445 30.5511 29.4496 30.5563 29.4524 30.5612C29.769 31.0356 29.9288 31.5197 29.9288 32.0272V33.0398H29.9287ZM40.0066 34.0776C39.038 35.0442 37.778 35.5255 36.5106 35.5255C35.2406 35.5255 33.9811 35.0462 33.0123 34.0776L33.0097 34.0752L31.2168 32.3029V32.0272C31.2168 31.2388 30.9592 30.4918 30.5211 29.8425C29.9701 29.0311 29.1534 28.3588 28.1589 27.8437C28.2826 27.5216 28.4396 27.1709 28.6329 26.811C29.1791 25.7852 29.9983 24.6723 31.083 23.8173C32.1622 22.9645 33.4892 22.3566 35.1301 22.2635L40.004 27.0834H40.0066C40.9726 28.052 41.4543 29.3145 41.4543 30.5817C41.4543 31.8494 40.9726 33.1119 40.0066 34.0776Z" fill="black"/>
</svg>
