<svg width="1196" height="543" viewBox="0 0 1196 543" fill="none" xmlns="http://www.w3.org/2000/svg">
<g clip-path="url(#clip0_88_152)">
<rect width="1196" height="543" rx="5" fill="#0C0C0E"/>
<path d="M61.9815 8.51538L15.5546 23.6228L22.9242 72.5676M61.9815 8.51538L22.9242 72.5676M61.9815 8.51538L25.0573 -14L-14 50.0523L22.9242 72.5676" stroke="#464E2A" stroke-width="3"/>
<path d="M1063 166.262L1106.39 188.654L1136.01 149M1063 166.262L1136.01 149M1063 166.262L1072.95 208.349L1145.96 191.087L1136.01 149" stroke="#464E2A" stroke-width="3"/>
<path d="M1136 296.262L1179.39 318.654L1209.01 279M1136 296.262L1209.01 279M1136 296.262L1145.95 338.349L1218.96 321.087L1209.01 279" stroke="#464E2A" stroke-width="3"/>
<path d="M1136.11 -17L1151.73 29.2571L1200.59 21.3469M1136.11 -17L1200.59 21.3469M1136.11 -17L1114 20.1708L1178.48 58.5178L1200.59 21.3469" stroke="#464E2A" stroke-width="3"/>
<circle cx="530" cy="194" r="5" fill="#464E2A"/>
<path d="M1100.05 456L1118.16 501.339L1166.52 490.781M1100.05 456L1166.52 490.781M1100.05 456L1080 494.319L1146.47 529.1L1166.52 490.781" stroke="#464E2A" stroke-width="3"/>
<path d="M744 343.262L787.386 365.654L817.008 326M744 343.262L817.008 326M744 343.262L753.951 385.349L826.959 368.087L817.008 326" stroke="#464E2A" stroke-width="3"/>
<path d="M438.623 158.197L393.644 139.209L367.159 181.023M438.623 158.197L367.159 181.023M438.623 158.197L425.464 117L354 139.826L367.159 181.023" stroke="#464E2A" stroke-width="3"/>
<path d="M-15 516.468L30.1481 535.051L56.2561 493M-15 516.468L56.2561 493M-15 516.468L-1.47159 557.545L69.7845 534.077L56.2561 493" stroke="#464E2A" stroke-width="3"/>
<path d="M875.845 63L905.632 101.683L949.28 78.343M875.845 63L949.28 78.343M875.845 63L867 105.333L940.435 120.676L949.28 78.343" stroke="#464E2A" stroke-width="3"/>
<path d="M253.845 -29L283.632 9.68329L327.28 -13.657M253.845 -29L327.28 -13.657M253.845 -29L245 13.3333L318.435 28.6763L327.28 -13.657" stroke="#464E2A" stroke-width="3"/>
<path d="M404.982 454.515L358.555 469.623L365.924 518.568M404.982 454.515L365.924 518.568M404.982 454.515L368.057 432L329 496.052L365.924 518.568" stroke="#464E2A" stroke-width="3"/>
<path d="M895.494 459.79L939.502 480.932L967.979 440.448M895.494 459.79L967.979 440.448M895.494 459.79L906.644 501.575L979.129 482.233L967.979 440.448" stroke="#464E2A" stroke-width="3"/>
<path d="M493 385.342L537.008 406.484L565.485 366M493 385.342L565.485 366M493 385.342L504.15 427.128L576.635 407.785L565.485 366" stroke="#464E2A" stroke-width="3"/>
<path d="M655.333 189.563L672.548 235.25L721.105 225.65M655.333 189.563L721.105 225.65M655.333 189.563L634.53 227.478L700.302 263.565L721.105 225.65" stroke="#464E2A" stroke-width="3"/>
<path d="M43.8448 263L73.6324 301.683L117.28 278.343M43.8448 263L117.28 278.343M43.8448 263L35.0001 305.333L108.435 320.676L117.28 278.343" stroke="#464E2A" stroke-width="3"/>
<path d="M171.845 116L201.632 154.683L245.28 131.343M171.845 116L245.28 131.343M171.845 116L163 158.333L236.435 173.676L245.28 131.343" stroke="#464E2A" stroke-width="3"/>
<path d="M1020.62 278.197L975.644 259.209L949.159 301.023M1020.62 278.197L949.159 301.023M1020.62 278.197L1007.46 237L936 259.826L949.159 301.023" stroke="#464E2A" stroke-width="3"/>
<path d="M220.748 361.033L265.896 379.617L292.004 337.566M220.748 361.033L292.004 337.566M220.748 361.033L234.276 402.11L305.532 378.643L292.004 337.566" stroke="#464E2A" stroke-width="3"/>
<path d="M73.7216 367.045C76.3959 362.183 80.6687 356.373 85.457 353.325C89.8284 350.544 93.3396 357.074 93.8476 360.412C94.6272 365.535 93.6606 370.76 95.6618 375.719C98.707 383.266 106.464 377.589 109.438 373.678C112.017 370.288 113.041 368.394 117.092 366.818C122.18 364.84 123.631 370.655 124.717 374.387C126.022 378.871 127.319 383.641 130.358 387.341C131.874 389.187 136.518 388.825 138.408 388.107C141.006 387.12 143.407 384.954 145.665 383.373" stroke="#464E2A" stroke-width="3" stroke-linecap="round"/>
<path d="M249.754 276.733C249.222 270.882 242.552 263.895 246.579 257.854C250.444 252.057 257.462 247.133 264.664 251.334C268.999 253.863 272.644 256.847 276.995 252.497C280.879 248.613 282.227 243.505 282.806 238.182C283.117 235.321 283.257 232.495 285.329 230.301C286.863 228.676 291.334 226.729 293.634 226.729" stroke="#464E2A" stroke-width="3" stroke-linecap="round"/>
<path d="M805.283 471.736C805.029 468.696 803.985 464.328 806.492 461.82C809.778 458.535 814.243 459.714 818.234 460.826C821.049 461.611 825.729 464.24 828.311 462.519C831.062 460.685 830.434 455.792 830.434 452.98C830.434 450.268 829.846 448.165 833.067 447.579C835.167 447.197 836.339 448.625 838.172 449.111C840.687 449.776 842.975 451.654 845.481 450.938C848.367 450.113 847.846 447.039 847.846 444.65" stroke="#464E2A" stroke-width="3" stroke-linecap="round"/>
<path d="M1014.52 358.031C1014.82 355.042 1019.19 352.605 1021.67 351.842C1024.84 350.866 1027.28 352.069 1028.57 355.237C1029.76 358.153 1028.37 361.41 1029.8 364.414C1031.94 368.938 1034.86 365.213 1037.34 363.296C1040.21 361.075 1040.97 356.999 1044.69 356.097C1047.29 355.466 1050.99 355.497 1052.62 358.031C1054.55 361.029 1053.77 365.121 1055.91 368.003C1058.49 371.49 1061.75 369.602 1064.03 367.315" stroke="#464E2A" stroke-width="3" stroke-linecap="round"/>
<path d="M1026.51 513.154C1027.72 514.519 1029.2 515.828 1031.09 516.206C1033.54 516.697 1034.51 515.428 1035.9 513.563C1039.13 509.236 1039.66 505.421 1039.19 500.174C1038.9 496.998 1039.26 495.809 1041.6 493.597C1042.96 492.302 1044.92 492.607 1046.58 493.06C1047.89 493.418 1050.15 495.211 1051.44 494.178C1053.24 492.738 1054.17 492.283 1055.05 489.944C1055.87 487.752 1055.97 486.001 1055.52 483.754" stroke="#464E2A" stroke-width="3" stroke-linecap="round"/>
<path d="M841.684 203.602C841.684 200.989 841.299 198.312 843.237 196.374C845.18 194.431 848.909 192.255 851.725 193.791C853.68 194.858 857.874 197.278 859.898 195.307C861.302 193.94 862.639 192.029 862.639 189.971C862.639 188.6 862.826 187.403 863.512 186.188C864.687 184.107 866.684 182.143 869.309 182.356C870.751 182.473 872.378 182.608 873.723 183.181C875.109 183.771 876.466 184.753 877.797 185.473C880.517 186.943 883.835 187.393 885.728 184.296C886.978 182.251 887.293 180.082 887.741 177.845" stroke="#464E2A" stroke-width="3" stroke-linecap="round"/>
<path d="M998.407 16.7566C1000.81 14.8328 1005.33 13.7286 1007.87 16.0047C1010.06 17.9718 1010.04 21.1402 1010.63 23.8142C1010.96 25.3051 1011.06 26.5377 1012.16 27.6704C1013.26 28.8038 1014.39 30.0472 1016.09 30.0472C1018.5 30.0472 1020.89 27.7815 1022.64 26.3123C1024.06 25.1083 1027.6 23.6766 1029.29 25.1724C1030.09 25.8718 1030.49 26.8634 1031.15 27.6704C1031.86 28.5406 1032.57 29.5647 1032.9 30.6536C1033.71 33.4014 1032.98 37.2207 1035.96 38.7904C1039.18 40.4845 1041.93 38.4445 1044.68 36.8381" stroke="#464E2A" stroke-width="3" stroke-linecap="round"/>
<path d="M37.2107 91.0241C37.5932 90.1634 39.6852 90.3277 40.4089 90.3277C42.6986 90.3277 45.2091 90.012 47.4242 90.6888C50.6466 91.6734 49.9966 95.5949 50.545 98.2586C50.9501 100.227 51.3151 103.602 53.9366 103.804C55.7808 103.946 57.1544 103.963 58.9789 103.43C60.4488 103 61.7565 102.369 63.2861 102.063C64.8988 101.74 65.8926 102.461 67.3611 102.966C68.6285 103.401 69.8655 103.804 70.5851 105.003C72.2462 107.772 70.8553 111.519 72.1326 114.52C72.7743 116.028 74.5363 117.153 76.0658 117.564C79.1822 118.4 81.7478 116.282 84.59 115.5C87.8621 114.601 89.9046 119.114 91.0637 121.432" stroke="#464E2A" stroke-width="3" stroke-linecap="round"/>
<path d="M141.435 53.6519C140.897 50.75 139.503 46.8601 141.551 44.3669C142.383 43.3545 143.498 42.1002 144.917 42.0457C146.567 41.9822 148.845 41.6919 150.256 42.6131C152.155 43.8544 154.018 45.3398 156.072 46.3142C157.48 46.9825 158.808 47.4157 160.34 47.6296C161.19 47.7482 161.928 48.1676 162.79 47.952C165.453 47.2862 166.79 44.0874 167.42 41.6846C168.212 38.6648 168.226 35.6649 168.619 32.6188C169.19 28.1913 174.066 26.6898 177.543 28.9435C178.808 29.7634 179.46 30.8835 180.341 32.0772C182.272 34.6922 183.859 36.6158 186.893 37.9577C188.927 38.8577 191.783 39.3873 193.663 37.9706C195.805 36.3561 195.963 32.2104 195.984 29.7688C195.999 28.0915 196.07 24.8771 197.532 23.7078C198.503 22.931 199.9 22.7793 201.091 22.7793" stroke="#464E2A" stroke-width="3" stroke-linecap="round"/>
<path d="M192.442 485.452C192.536 484.889 192.985 484.367 193.338 483.948C194.345 482.75 195.542 481.621 196.836 480.737C198.369 479.689 200.07 479.074 201.923 478.945C203.088 478.865 204.413 478.742 205.472 479.309C207.313 480.294 209.013 481.206 210.068 483.086C210.88 484.531 211.421 486.03 211.573 487.683C211.728 489.375 211.759 491.09 211.877 492.786C211.946 493.779 211.836 494.795 212.13 495.761C212.482 496.915 213.292 497.985 214.048 498.904C216.256 501.585 220.554 501.73 223.555 500.273C226.801 498.696 231.115 498.432 234.387 499.935C237.912 501.554 239.746 504.169 239.905 508.072C239.987 510.079 240.261 511.983 240.514 513.962C240.808 516.269 243.069 519.729 245.507 520.249C248.951 520.982 252.094 518.772 255.521 518.947C256.829 519.014 258.33 519.564 259.391 520.316C260.107 520.824 260.448 521.517 261.038 522.108" stroke="#464E2A" stroke-width="3" stroke-linecap="round"/>
<circle cx="1027" cy="137" r="5" fill="#464E2A"/>
<circle cx="883" cy="389" r="5" fill="#464E2A"/>
<circle cx="1167" cy="451" r="5" fill="#464E2A"/>
<circle cx="749" cy="29" r="5" fill="#464E2A"/>
<circle cx="694" cy="521" r="5" fill="#464E2A"/>
<circle cx="362" cy="407" r="5" fill="#464E2A"/>
<circle cx="115" cy="505" r="5" fill="#464E2A"/>
<circle cx="171" cy="338" r="5" fill="#464E2A"/>
<circle cx="49" cy="194" r="5" fill="#464E2A"/>
<circle cx="299" cy="63" r="5" fill="#464E2A"/>
<path d="M1158.19 121.966C1157.96 119.325 1156.5 116.625 1157.01 113.926C1157.42 111.736 1159.55 110.244 1161.57 109.658C1162.88 109.279 1164.8 109.04 1166.09 109.573C1167.14 110.004 1168.12 110.391 1169.2 110.749C1170.18 111.077 1170.95 111.879 1171.99 112.095C1175.32 112.79 1177.4 110.157 1177.94 107.232C1178.26 105.515 1176.99 103.621 1176.32 102.103C1175.5 100.258 1175.68 99.2805 1176.63 97.6039C1180.01 91.6254 1187.35 98.1819 1191.57 94.4874C1194.02 92.3478 1193.33 88.5191 1193.33 85.5622C1193.33 83.5721 1194.67 82.0048 1196.38 81.1482" stroke="#464E2A" stroke-width="3" stroke-linecap="round"/>
<circle cy="361" r="5" fill="#464E2A"/>
</g>
<defs>
<clipPath id="clip0_88_152">
<rect width="1196" height="543" fill="white"/>
</clipPath>
</defs>
</svg>
