<svg width="87" height="87" viewBox="0 0 87 87" fill="none" xmlns="http://www.w3.org/2000/svg">
<path d="M26 30.8611C26 47.5063 39.4936 61 56.1389 61C56.8898 61 57.6344 60.9726 58.3717 60.9185C59.2177 60.8565 59.6406 60.8256 60.0258 60.6039C60.3447 60.4204 60.6471 60.0949 60.8069 59.7633C61 59.3632 61 58.8963 61 57.9628V52.4847C61 51.6995 61 51.3069 60.8707 50.9706C60.7568 50.6732 60.5712 50.4086 60.3309 50.1998C60.0589 49.9633 59.6898 49.8292 58.9521 49.5608L52.7167 47.2934C51.8582 46.9813 51.4289 46.8252 51.0217 46.8516C50.6626 46.875 50.317 46.9977 50.0234 47.2057C49.6905 47.4416 49.4556 47.8332 48.9857 48.6166L47.3889 51.2778C42.2363 48.9442 38.0592 44.7617 35.7222 39.6111L38.3834 38.0144C39.1667 37.5444 39.5583 37.3094 39.7943 36.9765C40.0023 36.6829 40.125 36.3374 40.1484 35.9783C40.1748 35.5711 40.0187 35.1419 39.7066 34.2834L37.4391 28.0479C37.1708 27.3101 37.0367 26.9412 36.8003 26.6691C36.5914 26.4287 36.3267 26.2433 36.0295 26.1292C35.693 26 35.3004 26 34.5153 26H29.0372C28.1037 26 27.6369 26 27.2366 26.193C26.9051 26.3528 26.5797 26.6553 26.3961 26.9742C26.1744 27.3593 26.1434 27.7823 26.0815 28.6284C26.0275 29.3656 26 30.1101 26 30.8611Z" stroke="#AEB4C1" stroke-width="5" stroke-linecap="round" stroke-linejoin="round"/>
<circle cx="43.5" cy="43.5" r="42.5" stroke="#AEB4C1" stroke-width="2"/>
</svg>
