<svg width="121" height="119" viewBox="0 0 121 119" fill="none" xmlns="http://www.w3.org/2000/svg">
<path d="M120.5 59.5C120.5 92.077 93.645 118.5 60.5 118.5C27.355 118.5 0.5 92.077 0.5 59.5C0.5 26.923 27.355 0.5 60.5 0.5C93.645 0.5 120.5 26.923 120.5 59.5Z" fill="white" stroke="#AEB4C1"/>
<path d="M58 86.0032H88V53.5012C88 49.9111 85.3138 47.0008 82 47.0008H70M58 73.0024H58.03M76 73.0024H76.03M46 73.0024H46.03M58 60.0016H58.03M76 60.0016H76.03M46 60.0016H46.03M58 47.0008H58.03M46 47.0008H46.03M70 86.0032V40.5004C70 36.9103 67.3138 34 64 34H40C36.6863 34 34 36.9103 34 40.5004V86.0032H70Z" stroke="#AEB4C1" stroke-width="3" stroke-linecap="round" stroke-linejoin="round"/>
</svg>
