<svg width="31" height="31" viewBox="0 0 31 31" fill="none" xmlns="http://www.w3.org/2000/svg">
<path fill-rule="evenodd" clip-rule="evenodd" d="M26.5111 0.792371C25.4574 -0.263227 23.7384 -0.26502 22.6773 0.792371L18.9285 4.54122L1.8834 21.5881L-5.74112e-05 31L9.4118 29.1165L24.7524 13.7778L23.4745 12.4998L10.5289 25.4436L5.55632 20.4711L20.2064 5.81915L26.4587 12.0714L30.2076 8.32259C31.2632 7.26338 31.2632 5.5444 30.2076 4.4888L26.5111 0.792371ZM4.2784 21.749L9.25094 26.7215L8.52249 27.45L2.30636 28.6936L3.54996 22.4774L4.2784 21.749ZM20.0951 9.62708L8.91727 20.8049L10.1952 22.0828L21.373 10.905L20.0951 9.62708ZM24.5951 1.80639C24.8265 1.80639 25.0561 1.89316 25.2332 2.0703L28.9296 5.76672C29.2803 6.11738 29.2803 6.69217 28.9296 7.04465L26.4587 9.51556L21.4844 4.54119L23.9553 2.0703C24.1324 1.89316 24.3638 1.80639 24.5951 1.80639H24.5951Z" fill="#AEB4C1"/>
</svg>
