<svg width="35" height="35" viewBox="0 0 35 35" fill="none" xmlns="http://www.w3.org/2000/svg">
<path d="M17.4998 17.2023C21.4649 17.2023 24.6793 14.0043 24.6793 10.0594C24.6793 6.11447 21.4649 2.9165 17.4998 2.9165C13.5347 2.9165 10.3203 6.11447 10.3203 10.0594C10.3203 14.0043 13.5347 17.2023 17.4998 17.2023Z" fill="#AEB4C1"/>
<path d="M21.2395 20.1787H13.7608C9.42324 20.1787 5.8335 23.7502 5.8335 28.0655C5.8335 29.1072 6.28221 30.0001 7.17965 30.4465C8.5258 31.1906 11.5173 32.0834 17.5002 32.0834C23.4831 32.0834 26.4745 31.1906 27.8206 30.4465C28.5685 30.0001 29.1668 29.1072 29.1668 28.0655C29.1668 23.6013 25.5771 20.1787 21.2395 20.1787Z" fill="#AEB4C1"/>
</svg>
