<svg xmlns="http://www.w3.org/2000/svg" width="1145.5821" height="304.0047" viewBox="0 0 1145.5821 304.0047"><title>Asset 1</title><g id="Layer_2" data-name="Layer 2"><g id="Layer_1-2" data-name="Layer 1"><path d="M359.2646,99.54v-.2319c0-22.7354,17.6318-41.9907,42.5713-41.9907s42.3389,18.9072,42.3389,41.7588v.2319c0,22.7354-17.6318,41.9912-42.5713,41.9912S359.2646,122.3918,359.2646,99.54Zm69.9463,0v-.2319c0-15.7754-11.3677-28.8833-27.6074-28.8833-16.1235,0-27.375,12.876-27.375,28.6514v.2319c0,15.7759,11.3677,28.7676,27.6074,28.7676C417.9594,128.0759,429.2109,115.3161,429.2109,99.54Z" style="fill:#41474d"/><path d="M470.5078,65.9011a7.082,7.082,0,0,1,7.1914-7.1919h29c10.208,0,18.2114,3.0161,23.4316,8.12a24.7415,24.7415,0,0,1,6.7275,17.5156v.2319c0,13.1074-7.54,20.7632-18.4434,24.2432l15.5435,19.6035c1.3921,1.74,2.32,3.248,2.32,5.4521a6.5859,6.5859,0,0,1-6.8442,6.6118c-3.2476,0-5.22-1.5078-6.9595-3.7119l-19.72-25.1714H484.7754v21.8071a6.89,6.89,0,0,1-7.0762,7.0762,6.9862,6.9862,0,0,1-7.1914-7.0762ZM505.6548,98.96c10.208,0,16.7036-5.22,16.7036-13.5713v-.2324c0-8.8154-6.1479-13.4556-16.8193-13.4556H484.7754V98.96Z" style="fill:#41474d"/><path d="M588.3623,64.0451a8.606,8.606,0,0,1,3.5957-4.292,10.3109,10.3109,0,0,1,5.4521-1.624h.2314a10.624,10.624,0,0,1,5.4521,1.624,8.606,8.606,0,0,1,3.5957,4.292l29.1152,66.6987a5.8714,5.8714,0,0,1-.4639,6.1475,6.2727,6.2727,0,0,1-5.5674,3.0161h-.58a7.1971,7.1971,0,0,1-3.7119-1.0439,6.17,6.17,0,0,1-2.4365-3.0161L616.55,120.3039H578.1543l-6.6123,15.66a9.5533,9.5533,0,0,1-2.4355,2.9,7.1971,7.1971,0,0,1-3.7119,1.0439h-.2314a6.3561,6.3561,0,0,1-5.4521-3.0161,5.8714,5.8714,0,0,1-.4644-6.1475ZM611.3291,107.66,597.2939,75.1808,583.374,107.66Z" style="fill:#41474d"/><path d="M671.65,71.9328h-19.72a6.6118,6.6118,0,1,1,0-13.2236h53.9385a6.6128,6.6128,0,0,1,0,13.2236h-19.835v61.4785a7.1928,7.1928,0,0,1-14.3838,0Z" style="fill:#41474d"/><path d="M727.91,99.54v-.2319c0-22.7354,17.6318-41.9907,42.5713-41.9907S812.82,76.2248,812.82,99.0764v.2319c0,22.7354-17.6318,41.9912-42.5713,41.9912S727.91,122.3918,727.91,99.54Zm69.9463,0v-.2319c0-15.7754-11.3672-28.8833-27.6074-28.8833-16.123,0-27.375,12.876-27.375,28.6514v.2319c0,15.7759,11.3672,28.7676,27.6074,28.7676C786.6045,128.0759,797.8564,115.3161,797.8564,99.54Z" style="fill:#41474d"/><path d="M839.1533,65.9011a7.0822,7.0822,0,0,1,7.1924-7.1919h28.999c10.208,0,18.2119,3.0161,23.4316,8.12a24.7415,24.7415,0,0,1,6.7275,17.5156v.2319c0,13.1074-7.54,20.7632-18.4434,24.2432l15.5439,19.6035c1.3916,1.74,2.3193,3.248,2.3193,5.4521a6.5857,6.5857,0,0,1-6.8437,6.6118c-3.248,0-5.22-1.5078-6.96-3.7119l-19.7187-25.1714h-17.98v21.8071a6.89,6.89,0,0,1-7.0752,7.0762,6.9864,6.9864,0,0,1-7.1924-7.0762ZM874.3008,98.96c10.208,0,16.7041-5.22,16.7041-13.5713v-.2324c0-8.8154-6.1484-13.4556-16.82-13.4556H853.4209V98.96Z" style="fill:#41474d"/><path d="M932.8808,65.2053a6.9862,6.9862,0,0,1,7.1914-7.0762,6.89,6.89,0,0,1,7.0762,7.0762v68.2061a6.89,6.89,0,0,1-7.0762,7.0762,6.9862,6.9862,0,0,1-7.1914-7.0762Z" style="fill:#41474d"/><path d="M974.291,99.54v-.2319c0-23.0835,17.2842-41.9907,41.875-41.9907,12.5283,0,20.7637,3.7119,27.84,9.1636a7.1292,7.1292,0,0,1,2.7832,5.6841,6.7951,6.7951,0,0,1-7.0752,6.9595,6.3156,6.3156,0,0,1-4.292-1.3921c-5.5684-4.5234-11.4844-7.3076-19.3721-7.3076-15.4277,0-26.7949,12.876-26.7949,28.6514v.2319c0,15.8916,11.252,28.7676,26.7949,28.7676,8.7,0,14.3838-2.7842,20.3-7.772a6.4906,6.4906,0,0,1,4.292-1.624,6.7861,6.7861,0,0,1,6.7275,6.6118,7.0589,7.0589,0,0,1-2.3193,5.104c-7.7725,6.8438-16.3555,10.9038-29.4639,10.9038C991.9228,141.2995,974.291,122.8556,974.291,99.54Z" style="fill:#41474d"/><path d="M1097.4814,64.0451a8.6158,8.6158,0,0,1,3.5957-4.292,10.3134,10.3134,0,0,1,5.4521-1.624h.2324a10.6267,10.6267,0,0,1,5.4521,1.624,8.6158,8.6158,0,0,1,3.5957,4.292l29.1152,66.6987a5.8735,5.8735,0,0,1-.4639,6.1475,6.2743,6.2743,0,0,1-5.5684,3.0161h-.58a7.2,7.2,0,0,1-3.7119-1.0439,6.1679,6.1679,0,0,1-2.4355-3.0161l-6.4961-15.5435h-38.3945l-6.6123,15.66a9.5672,9.5672,0,0,1-2.4355,2.9,7.2,7.2,0,0,1-3.7119,1.0439h-.2324a6.3567,6.3567,0,0,1-5.4521-3.0161,5.8735,5.8735,0,0,1-.4639-6.1475Zm22.9678,43.6152-14.0361-32.4795L1092.4941,107.66Z" style="fill:#41474d"/><path d="M384.2368,219.6745a22.03,22.03,0,0,1-16.064-6.6875,22.3761,22.3761,0,0,1-4.7041-7.3281,23.9892,23.9892,0,0,1-1.6958-9.0244v-.1279a23.8218,23.8218,0,0,1,1.6958-8.96,23.1329,23.1329,0,0,1,4.7041-7.3916,21.861,21.861,0,0,1,7.168-4.9922,22.383,22.383,0,0,1,9.0879-1.8242,23.1455,23.1455,0,0,1,9.1523,1.6006,27.7394,27.7394,0,0,1,6.8477,4.2236,3.4742,3.4742,0,0,1,.7041.832,2.2532,2.2532,0,0,1,.32,1.2158,2.3536,2.3536,0,0,1-.7681,1.7607,2.5119,2.5119,0,0,1-1.792.7354,2.1857,2.1857,0,0,1-.9282-.1914,7.6228,7.6228,0,0,1-.7358-.3848,23.6566,23.6566,0,0,0-5.6641-3.7119,17.0211,17.0211,0,0,0-7.2-1.4082,16.7073,16.7073,0,0,0-12.3838,5.3125,18.0875,18.0875,0,0,0-3.6479,5.8564,19.6063,19.6063,0,0,0-1.312,7.1992v.1279a19.79,19.79,0,0,0,1.312,7.2646,18.0934,18.0934,0,0,0,3.6479,5.8555,17.2139,17.2139,0,0,0,5.5039,3.9365,16.4279,16.4279,0,0,0,6.88,1.4395,17.96,17.96,0,0,0,7.3281-1.376,21.7163,21.7163,0,0,0,5.9839-4.0635,2.2026,2.2026,0,0,1,1.6-.7041,2.5189,2.5189,0,0,1,2.4321,2.4316,2.0345,2.0345,0,0,1-.2559,1.0244,3.6333,3.6333,0,0,1-.5762.7676,31.1167,31.1167,0,0,1-3.4238,2.752,21.5571,21.5571,0,0,1-3.7764,2.08,21.1066,21.1066,0,0,1-4.3521,1.3125A27.1207,27.1207,0,0,1,384.2368,219.6745Z" style="fill:#686f7a"/><path d="M435.6289,214.6833a20.026,20.026,0,0,1-5.312,3.6152,16.8561,16.8561,0,0,1-7.1685,1.376,16.531,16.531,0,0,1-6.4-1.248,15.7574,15.7574,0,0,1-5.248-3.52,16.7835,16.7835,0,0,1-3.5518-5.44,18.1345,18.1345,0,0,1-1.312-7.0078v-.1279a18.8535,18.8535,0,0,1,1.1841-6.72,17.0425,17.0425,0,0,1,3.2959-5.4717,15.3922,15.3922,0,0,1,5.0239-3.6807,15.967,15.967,0,0,1,12.896.0322,14.1779,14.1779,0,0,1,4.832,3.7119,16.5514,16.5514,0,0,1,2.9761,5.376,19.6326,19.6326,0,0,1,1.0239,6.3037,2.1447,2.1447,0,0,1-.7031,1.6641,2.2989,2.2989,0,0,1-1.5947.6406H411.6928a13.6489,13.6489,0,0,0,1.2759,4.7676,11.7694,11.7694,0,0,0,2.584,3.5205,10.6678,10.6678,0,0,0,3.542,2.1758,11.9607,11.9607,0,0,0,4.2109.7363,12.38,12.38,0,0,0,5.36-1.0889,17.086,17.086,0,0,0,4.147-2.752,2.225,2.225,0,0,1,1.4082-.5752,2.1525,2.1525,0,0,1,1.5361.6074,2.0691,2.0691,0,0,1-.1279,3.1045ZM432.94,200.5388a16.9512,16.9512,0,0,0-.9248-4.2881,11.4122,11.4122,0,0,0-2.042-3.584,9.8824,9.8824,0,0,0-3.1909-2.4639,9.7739,9.7739,0,0,0-4.37-.9277,9.3848,9.3848,0,0,0-4.021.8643,10.47,10.47,0,0,0-3.2539,2.3672,12.4492,12.4492,0,0,0-2.2969,3.5527,15.0421,15.0421,0,0,0-1.1479,4.4795Z" style="fill:#686f7a"/><path d="M445.74,187.9948a2.4556,2.4556,0,0,1,.7041-1.76,2.2985,2.2985,0,0,1,1.728-.7363,2.4095,2.4095,0,0,1,2.4961,2.4961v3.584a15.5862,15.5862,0,0,1,4.3521-4.5762,11.8817,11.8817,0,0,1,6.9756-1.8877,13.973,13.973,0,0,1,5.3442.96,11.07,11.07,0,0,1,3.9678,2.72,11.9772,11.9772,0,0,1,2.4961,4.1924,15.967,15.967,0,0,1,.8643,5.376v18.3682a2.4285,2.4285,0,0,1-.7041,1.792,2.354,2.354,0,0,1-1.728.7041,2.4063,2.4063,0,0,1-2.4961-2.4912V199.6208a10.6158,10.6158,0,0,0-2.3677-7.28,8.5748,8.5748,0,0,0-6.7842-2.6816,10.4262,10.4262,0,0,0-3.936.7354,9.1739,9.1739,0,0,0-3.168,2.1064,9.5241,9.5241,0,0,0-2.08,3.2891,11.66,11.66,0,0,0-.7358,4.2148V216.736a2.4826,2.4826,0,0,1-.6724,1.7891,2.3293,2.3293,0,0,1-1.76.7021,2.4095,2.4095,0,0,1-2.4961-2.4961Z" style="fill:#686f7a"/><path d="M495.4043,219.4831a13.02,13.02,0,0,1-3.7119-.5117,7.6354,7.6354,0,0,1-2.9766-1.6328,7.5283,7.5283,0,0,1-1.9521-2.9121,11.7062,11.7062,0,0,1-.7031-4.2871V190.1706H483.372a2.1758,2.1758,0,0,1,0-4.3516h2.6885V178.01a2.5213,2.5213,0,0,1,.6719-1.76,2.27,2.27,0,0,1,1.76-.7354,2.5125,2.5125,0,0,1,2.4961,2.4951v7.8086h8.5762a2.204,2.204,0,0,1,1.5674.64,2.092,2.092,0,0,1,0,3.0723,2.2,2.2,0,0,1-1.5674.64h-8.5762v19.2783q0,3.0645,1.5361,4.2773a6.3157,6.3157,0,0,0,4.0313,1.2129,6.8105,6.8105,0,0,0,1.9844-.2246,3.8978,3.8978,0,0,1,1.0244-.2236,2.0337,2.0337,0,0,1,1.5039.6162,2.0879,2.0879,0,0,1,.6074,1.5225,1.9311,1.9311,0,0,1-1.4072,1.9453,11.6866,11.6866,0,0,1-2.24.6807A13.6626,13.6626,0,0,1,495.4043,219.4831Z" style="fill:#686f7a"/><path d="M509.3554,187.9948a2.4577,2.4577,0,0,1,.7041-1.76,2.2982,2.2982,0,0,1,1.7275-.7363,2.4095,2.4095,0,0,1,2.4961,2.4961v6.208a16.1989,16.1989,0,0,1,2.208-3.68,15.8808,15.8808,0,0,1,2.8486-2.7842,12.6363,12.6363,0,0,1,3.168-1.76,9.0488,9.0488,0,0,1,3.168-.6084,2.3251,2.3251,0,0,1,1.76.7041,2.4909,2.4909,0,0,1,.6719,1.792,2.4377,2.4377,0,0,1-.6074,1.6963,2.4891,2.4891,0,0,1-1.5684.8,14.7913,14.7913,0,0,0-4.5439,1.3438,10.9881,10.9881,0,0,0-3.68,2.9121,14.4173,14.4173,0,0,0-2.4961,4.5762,19.2089,19.2089,0,0,0-.9287,6.2715v11.2646a2.518,2.518,0,0,1-.6719,1.76,2.2737,2.2737,0,0,1-1.76.7363,2.4095,2.4095,0,0,1-2.4961-2.4961Z" style="fill:#686f7a"/><path d="M562.7959,216.7311a2.5188,2.5188,0,0,1-.6729,1.76,2.2709,2.2709,0,0,1-1.76.7363,2.35,2.35,0,0,1-1.7275-.7041,2.4209,2.4209,0,0,1-.7041-1.792v-3.584a15.5949,15.5949,0,0,1-4.3525,4.5762,11.8827,11.8827,0,0,1-6.9756,1.8877,13.9635,13.9635,0,0,1-5.3437-.96,11.0693,11.0693,0,0,1-3.9687-2.72,11.9663,11.9663,0,0,1-2.4951-4.1924,15.9589,15.9589,0,0,1-.8643-5.376V187.9948a2.4909,2.4909,0,0,1,.6719-1.792,2.3236,2.3236,0,0,1,1.76-.7041,2.4616,2.4616,0,0,1,1.76.7031,2.3658,2.3658,0,0,1,.7363,1.7881v17.1152a10.6027,10.6027,0,0,0,2.3682,7.2793,8.57,8.57,0,0,0,6.7842,2.6826,10.4232,10.4232,0,0,0,3.9355-.7344,8.8557,8.8557,0,0,0,3.1357-2.1074,10.1883,10.1883,0,0,0,2.08-3.2891,11.2173,11.2173,0,0,0,.7686-4.2148V187.99a2.48,2.48,0,0,1,.6719-1.7881,2.3264,2.3264,0,0,1,1.76-.7031,2.3551,2.3551,0,0,1,1.7285.7041,2.4316,2.4316,0,0,1,.7041,1.792Z" style="fill:#686f7a"/><path d="M622.8906,216.7311a2.4285,2.4285,0,0,1-.7041,1.792,2.3535,2.3535,0,0,1-1.7285.7041,2.4079,2.4079,0,0,1-2.4951-2.4961v-4.48a25.7877,25.7877,0,0,1-2.2725,2.8164,15.5807,15.5807,0,0,1-2.7842,2.3682,12.9337,12.9337,0,0,1-3.4238,1.6,14.3379,14.3379,0,0,1-4.1924.5762,15.2251,15.2251,0,0,1-5.8232-1.1523,15.5168,15.5168,0,0,1-5.0566-3.3594,16.4922,16.4922,0,0,1-3.584-5.376,18.4679,18.4679,0,0,1-1.3437-7.2646v-.1279a18.5282,18.5282,0,0,1,1.3438-7.2314,16.3924,16.3924,0,0,1,3.584-5.4082,15.9665,15.9665,0,0,1,5.0566-3.3926,14.8823,14.8823,0,0,1,5.8232-1.1836,14.6669,14.6669,0,0,1,4.2246.5762,14.1351,14.1351,0,0,1,3.4561,1.5361,14.94,14.94,0,0,1,2.7842,2.2393,20.0847,20.0847,0,0,1,2.208,2.6885V174.363a2.4909,2.4909,0,0,1,.6719-1.792,2.3206,2.3206,0,0,1,1.76-.7041,2.4095,2.4095,0,0,1,2.4961,2.4961Zm-16.7041-27.2a11.8788,11.8788,0,0,0-4.5439.8643,10.6213,10.6213,0,0,0-3.68,2.4961,11.9806,11.9806,0,0,0-2.4961,4,14.6361,14.6361,0,0,0-.9287,5.376v.1279a14.0277,14.0277,0,0,0,.96,5.3115,12.5316,12.5316,0,0,0,2.5605,4.0322,11.2338,11.2338,0,0,0,12.5762,2.5283,12.3027,12.3027,0,0,0,3.84-2.624,12.6089,12.6089,0,0,0,2.6875-4.0322,13.2189,13.2189,0,0,0,.9922-5.2158v-.1279a13.2306,13.2306,0,0,0-.9922-5.2168,12.2649,12.2649,0,0,0-2.6875-4,12.61,12.61,0,0,0-3.84-2.5918A11.1,11.1,0,0,0,606.1865,189.5309Z" style="fill:#686f7a"/><path d="M660.01,214.6833a20.0285,20.0285,0,0,1-5.3125,3.6152,16.8523,16.8523,0,0,1-7.168,1.376,16.5268,16.5268,0,0,1-6.3994-1.248,15.7476,15.7476,0,0,1-5.248-3.52,16.7779,16.7779,0,0,1-3.5527-5.44,18.1343,18.1343,0,0,1-1.3115-7.0078v-.1279a18.8533,18.8533,0,0,1,1.1836-6.72,17.06,17.06,0,0,1,3.2959-5.4717,15.389,15.389,0,0,1,5.0244-3.6807,15.9681,15.9681,0,0,1,12.8965.0322,14.1873,14.1873,0,0,1,4.832,3.7119,16.5412,16.5412,0,0,1,2.9756,5.376,19.6464,19.6464,0,0,1,1.0244,6.3037,2.1464,2.1464,0,0,1-.7031,1.6641,2.3011,2.3011,0,0,1-1.5957.6406H636.0732a13.66,13.66,0,0,0,1.2764,4.7676,11.7694,11.7694,0,0,0,2.584,3.5205,10.6629,10.6629,0,0,0,3.542,2.1758,11.9607,11.9607,0,0,0,4.2109.7363,12.3836,12.3836,0,0,0,5.36-1.0889,17.0925,17.0925,0,0,0,4.1465-2.752,2.225,2.225,0,0,1,1.4082-.5752,2.1525,2.1525,0,0,1,1.5361.6074,2.0691,2.0691,0,0,1-.1279,3.1045Zm-2.6885-14.1445a16.9512,16.9512,0,0,0-.9248-4.2881,11.4217,11.4217,0,0,0-2.042-3.584,9.8739,9.8739,0,0,0-3.1914-2.4639,9.7726,9.7726,0,0,0-4.3691-.9277,9.387,9.387,0,0,0-4.0215.8643,10.459,10.459,0,0,0-3.2539,2.3672,12.46,12.46,0,0,0-2.2969,3.5527,15.0572,15.0572,0,0,0-1.1484,4.4795Z" style="fill:#686f7a"/><path d="M688.9365,174.363a2.452,2.452,0,0,1,.7041-1.76,2.2982,2.2982,0,0,1,1.7275-.7363,2.3744,2.3744,0,0,1,1.792.7363,2.46,2.46,0,0,1,.7041,1.76v42.3682a2.4877,2.4877,0,0,1-.6719,1.792,2.3251,2.3251,0,0,1-1.76.7041,2.4095,2.4095,0,0,1-2.4961-2.4961Z" style="fill:#686f7a"/><path d="M704.4873,175.4509a2.3735,2.3735,0,0,1,.8408-1.92,3.1207,3.1207,0,0,1,2.0713-.7041,3.2158,3.2158,0,0,1,2.1348.7041,2.3735,2.3735,0,0,1,.8408,1.92v.832a2.3935,2.3935,0,0,1-.8408,1.8877,3.1211,3.1211,0,0,1-2.1348.7363,3.0306,3.0306,0,0,1-2.0713-.7363,2.3935,2.3935,0,0,1-.8408-1.8877Zm.4482,12.5439a2.4417,2.4417,0,0,1,.7129-1.76,2.343,2.343,0,0,1,1.751-.7363,2.4813,2.4813,0,0,1,1.8154.7041,2.4156,2.4156,0,0,1,.7129,1.792v28.7363a2.47,2.47,0,0,1-.6816,1.792,2.37,2.37,0,0,1-1.7822.7041,2.4766,2.4766,0,0,1-1.8154-.7041,2.4089,2.4089,0,0,1-.7129-1.792Z" style="fill:#686f7a"/><path d="M720.4863,187.9948a2.4577,2.4577,0,0,1,.7041-1.76,2.2982,2.2982,0,0,1,1.7275-.7363,2.4095,2.4095,0,0,1,2.4961,2.4961v3.3926a26.7763,26.7763,0,0,1,1.8242-2.3682,11.3533,11.3533,0,0,1,2.2725-2.0166,11.2182,11.2182,0,0,1,2.88-1.376,12.2044,12.2044,0,0,1,3.7119-.5117,11.1221,11.1221,0,0,1,6.6563,1.8877,12.223,12.223,0,0,1,3.9678,4.7041,20.7559,20.7559,0,0,1,2.0156-2.56,12.6451,12.6451,0,0,1,2.5283-2.1123,12.2355,12.2355,0,0,1,3.168-1.4082,14.0913,14.0913,0,0,1,3.9355-.5117q5.7612,0,9.0244,3.5518t3.2637,9.76v18.3047a2.4247,2.4247,0,0,1-.7041,1.792,2.3529,2.3529,0,0,1-1.7275.7041,2.4063,2.4063,0,0,1-2.4961-2.4912V199.6208q0-4.7871-2.2715-7.375a7.9561,7.9561,0,0,0-6.3047-2.5869,9.3184,9.3184,0,0,0-3.52.6709,8.2343,8.2343,0,0,0-2.9121,1.9795,9.1945,9.1945,0,0,0-1.9521,3.2246,12.5268,12.5268,0,0,0-.7041,4.3428V216.736a2.4062,2.4062,0,0,1-2.4961,2.4912,2.3557,2.3557,0,0,1-1.7275-.7021,2.4157,2.4157,0,0,1-.7041-1.7891V199.4938q0-4.6626-2.2725-7.248a7.8771,7.8771,0,0,0-6.2393-2.5869,8.6178,8.6178,0,0,0-3.6484.7666,8.7729,8.7729,0,0,0-2.9121,2.1719,10.3567,10.3567,0,0,0-1.9521,3.2881,11.8649,11.8649,0,0,0-.7041,4.1826v16.668a2.4823,2.4823,0,0,1-.6719,1.7891,2.3308,2.3308,0,0,1-1.76.7021,2.4095,2.4095,0,0,1-2.4961-2.4961Z" style="fill:#686f7a"/><path d="M780.5176,174.363a2.4277,2.4277,0,0,1,.7041-1.792,2.35,2.35,0,0,1,1.7275-.7041,2.4095,2.4095,0,0,1,2.4961,2.4961v18.1123a25.7653,25.7653,0,0,1,2.2725-2.8164,14.6134,14.6134,0,0,1,2.7842-2.3359,14.4194,14.4194,0,0,1,3.4238-1.6,13.6244,13.6244,0,0,1,4.1914-.6084,15.5974,15.5974,0,0,1,10.8809,4.5117,16.523,16.523,0,0,1,3.584,5.376,18.4713,18.4713,0,0,1,1.3438,7.2646v.1279a18.5247,18.5247,0,0,1-1.3437,7.2314,16.6615,16.6615,0,0,1-3.5527,5.4082,15.49,15.49,0,0,1-5.0557,3.3916,15.1267,15.1267,0,0,1-5.8564,1.1846,14.6649,14.6649,0,0,1-4.2236-.5762,14.1351,14.1351,0,0,1-3.4561-1.5361,14.8662,14.8662,0,0,1-2.7842-2.24,19.9546,19.9546,0,0,1-2.208-2.6875v4.16a2.518,2.518,0,0,1-.6719,1.76,2.2737,2.2737,0,0,1-1.76.7363,2.3729,2.3729,0,0,1-1.792-.7363,2.4544,2.4544,0,0,1-.7041-1.76Zm16.7041,40.832a11.9568,11.9568,0,0,0,4.5117-.8643,10.56,10.56,0,0,0,3.7119-2.4961,12.0331,12.0331,0,0,0,2.4961-4,14.649,14.649,0,0,0,.9287-5.376v-.1279a14.4674,14.4674,0,0,0-.9287-5.3115,12.1577,12.1577,0,0,0-2.5273-4.0322,11.1654,11.1654,0,0,0-3.7119-2.5605,11.368,11.368,0,0,0-4.48-.8955,11.0965,11.0965,0,0,0-4.4482.9277,12.3132,12.3132,0,0,0-3.84,2.624,12.5824,12.5824,0,0,0-2.6875,4.0322,13.04,13.04,0,0,0-.9922,5.1523v.1279a13.4384,13.4384,0,0,0,.9922,5.248,12.1047,12.1047,0,0,0,2.6875,4.0313,12.5376,12.5376,0,0,0,3.84,2.5928A11.0965,11.0965,0,0,0,797.2217,215.195Z" style="fill:#686f7a"/><path d="M822.1806,175.4509a2.3735,2.3735,0,0,1,.8408-1.92,3.1207,3.1207,0,0,1,2.0713-.7041,3.2158,3.2158,0,0,1,2.1348.7041,2.3735,2.3735,0,0,1,.8408,1.92v.832a2.3935,2.3935,0,0,1-.8408,1.8877,3.1211,3.1211,0,0,1-2.1348.7363,3.0306,3.0306,0,0,1-2.0713-.7363,2.3935,2.3935,0,0,1-.8408-1.8877Zm.4482,12.5439a2.4417,2.4417,0,0,1,.7129-1.76,2.343,2.343,0,0,1,1.751-.7363,2.4813,2.4813,0,0,1,1.8154.7041,2.4156,2.4156,0,0,1,.7129,1.792v28.7363a2.47,2.47,0,0,1-.6816,1.792,2.37,2.37,0,0,1-1.7822.7041,2.4766,2.4766,0,0,1-1.8154-.7041,2.4089,2.4089,0,0,1-.7129-1.792Z" style="fill:#686f7a"/><path d="M883.4922,214.6833a20.0285,20.0285,0,0,1-5.3125,3.6152,16.8523,16.8523,0,0,1-7.168,1.376,16.5268,16.5268,0,0,1-6.3994-1.248,15.7476,15.7476,0,0,1-5.248-3.52,16.7779,16.7779,0,0,1-3.5527-5.44,18.1343,18.1343,0,0,1-1.3115-7.0078v-.1279a18.8533,18.8533,0,0,1,1.1836-6.72,17.06,17.06,0,0,1,3.2959-5.4717,15.389,15.389,0,0,1,5.0244-3.6807,15.9681,15.9681,0,0,1,12.8965.0322,14.1873,14.1873,0,0,1,4.832,3.7119,16.5412,16.5412,0,0,1,2.9756,5.376,19.6464,19.6464,0,0,1,1.0244,6.3037,2.1464,2.1464,0,0,1-.7031,1.6641,2.3011,2.3011,0,0,1-1.5957.6406H859.5556a13.66,13.66,0,0,0,1.2764,4.7676,11.7694,11.7694,0,0,0,2.584,3.5205,10.6629,10.6629,0,0,0,3.542,2.1758,11.9607,11.9607,0,0,0,4.2109.7363,12.3836,12.3836,0,0,0,5.36-1.0889,17.0925,17.0925,0,0,0,4.1465-2.752,2.225,2.225,0,0,1,1.4082-.5752,2.1525,2.1525,0,0,1,1.5361.6074,2.0691,2.0691,0,0,1-.1279,3.1045Zm-2.6885-14.1445a16.9512,16.9512,0,0,0-.9248-4.2881,11.4217,11.4217,0,0,0-2.042-3.584,9.8739,9.8739,0,0,0-3.1914-2.4639,9.7726,9.7726,0,0,0-4.3691-.9277,9.387,9.387,0,0,0-4.0215.8643,10.459,10.459,0,0,0-3.2539,2.3672,12.46,12.46,0,0,0-2.2969,3.5527,15.0572,15.0572,0,0,0-1.1484,4.4795Z" style="fill:#686f7a"/><path d="M921.956,216.7311a2.5188,2.5188,0,0,1-.6729,1.76,2.2709,2.2709,0,0,1-1.76.7363,2.35,2.35,0,0,1-1.7275-.7041,2.4209,2.4209,0,0,1-.7041-1.792v-3.584a15.5949,15.5949,0,0,1-4.3525,4.5762,11.8827,11.8827,0,0,1-6.9756,1.8877,13.9635,13.9635,0,0,1-5.3437-.96,11.0693,11.0693,0,0,1-3.9687-2.72,11.9663,11.9663,0,0,1-2.4951-4.1924,15.9589,15.9589,0,0,1-.8643-5.376V187.9948a2.4909,2.4909,0,0,1,.6719-1.792,2.3236,2.3236,0,0,1,1.76-.7041,2.4616,2.4616,0,0,1,1.76.7031,2.3658,2.3658,0,0,1,.7363,1.7881v17.1152a10.6027,10.6027,0,0,0,2.3682,7.2793,8.57,8.57,0,0,0,6.7842,2.6826,10.4232,10.4232,0,0,0,3.9355-.7344,8.8557,8.8557,0,0,0,3.1357-2.1074,10.1883,10.1883,0,0,0,2.08-3.2891,11.2173,11.2173,0,0,0,.7686-4.2148V187.99a2.48,2.48,0,0,1,.6719-1.7881,2.3264,2.3264,0,0,1,1.76-.7031,2.3551,2.3551,0,0,1,1.7285.7041,2.4316,2.4316,0,0,1,.7041,1.792Z" style="fill:#686f7a"/><path d="M932.1953,187.9948a2.4577,2.4577,0,0,1,.7041-1.76,2.2982,2.2982,0,0,1,1.7275-.7363,2.4095,2.4095,0,0,1,2.4961,2.4961v6.208a16.1989,16.1989,0,0,1,2.208-3.68,15.8808,15.8808,0,0,1,2.8486-2.7842,12.6363,12.6363,0,0,1,3.168-1.76,9.0488,9.0488,0,0,1,3.168-.6084,2.3251,2.3251,0,0,1,1.76.7041,2.4909,2.4909,0,0,1,.6719,1.792,2.4377,2.4377,0,0,1-.6074,1.6963,2.4891,2.4891,0,0,1-1.5684.8,14.7913,14.7913,0,0,0-4.5439,1.3438,10.9881,10.9881,0,0,0-3.68,2.9121,14.4173,14.4173,0,0,0-2.4961,4.5762,19.2089,19.2089,0,0,0-.9287,6.2715v11.2646a2.518,2.518,0,0,1-.6719,1.76,2.2737,2.2737,0,0,1-1.76.7363,2.4095,2.4095,0,0,1-2.4961-2.4961Z" style="fill:#686f7a"/><path d="M970.98,219.6745a16.8581,16.8581,0,0,1-6.8486-1.376,17.3111,17.3111,0,0,1-5.4395-3.7119,16.7428,16.7428,0,0,1-3.584-5.4395,17.1816,17.1816,0,0,1-1.28-6.624v-.1279a17.4222,17.4222,0,0,1,1.28-6.6562,16.8786,16.8786,0,0,1,9.0557-9.248,17.5007,17.5007,0,0,1,19.2959,3.7119,16.7732,16.7732,0,0,1,3.584,5.44,17.2,17.2,0,0,1,1.28,6.624v.1279a17.0761,17.0761,0,0,1-1.3125,6.6553,17.4956,17.4956,0,0,1-3.6152,5.5049,16.8956,16.8956,0,0,1-5.5049,3.7432A17.3168,17.3168,0,0,1,970.98,219.6745Zm.1279-4.416a11.7141,11.7141,0,0,0,4.9277-1.0234,11.9281,11.9281,0,0,0,3.84-2.752,12.5929,12.5929,0,0,0,2.4961-4.0322,13.4865,13.4865,0,0,0,.8965-4.9277v-.1279a13.5,13.5,0,0,0-.9287-5.0244,12.7663,12.7663,0,0,0-2.5918-4.0957,12.4514,12.4514,0,0,0-3.9043-2.7842,11.5748,11.5748,0,0,0-4.8633-1.0244,11.7309,11.7309,0,0,0-4.9287,1.0244,11.5453,11.5453,0,0,0-3.8076,2.752,12.7794,12.7794,0,0,0-2.4639,4.0645,13.7048,13.7048,0,0,0-.8965,4.96v.1279a13.4684,13.4684,0,0,0,.9287,5.0234,12.6217,12.6217,0,0,0,2.56,4.0645,12.2821,12.2821,0,0,0,3.8721,2.752A11.5573,11.5573,0,0,0,971.1084,215.2585Z" style="fill:#686f7a"/><path d="M996.3877,187.9948a2.4277,2.4277,0,0,1,.7041-1.792,2.35,2.35,0,0,1,1.7275-.7041,2.4095,2.4095,0,0,1,2.4961,2.4961v4.48a25.7652,25.7652,0,0,1,2.2725-2.8164,14.6134,14.6134,0,0,1,2.7842-2.3359,14.4194,14.4194,0,0,1,3.4238-1.6,13.6244,13.6244,0,0,1,4.1914-.6084,15.5974,15.5974,0,0,1,10.8809,4.5117,16.523,16.523,0,0,1,3.584,5.376,18.4713,18.4713,0,0,1,1.3438,7.2646v.1279a18.5247,18.5247,0,0,1-1.3437,7.2314,16.6615,16.6615,0,0,1-3.5527,5.4082,15.49,15.49,0,0,1-5.0557,3.3916,15.1267,15.1267,0,0,1-5.8564,1.1846,14.6649,14.6649,0,0,1-4.2236-.5762,14.1351,14.1351,0,0,1-3.4561-1.5361,14.8663,14.8663,0,0,1-2.7842-2.24,19.9547,19.9547,0,0,1-2.208-2.6875v14.4a2.4925,2.4925,0,0,1-.6719,1.792,2.3244,2.3244,0,0,1-1.76.7031,2.4079,2.4079,0,0,1-2.4961-2.4951Zm16.7041,27.2a11.9568,11.9568,0,0,0,4.5117-.8643,10.56,10.56,0,0,0,3.7119-2.4961,12.0331,12.0331,0,0,0,2.4961-4,14.649,14.649,0,0,0,.9287-5.376v-.1279a14.4674,14.4674,0,0,0-.9287-5.3115,12.1577,12.1577,0,0,0-2.5273-4.0322,11.1655,11.1655,0,0,0-3.7119-2.5605,11.368,11.368,0,0,0-4.48-.8955,11.0965,11.0965,0,0,0-4.4482.9277,12.3132,12.3132,0,0,0-3.84,2.624,12.5824,12.5824,0,0,0-2.6875,4.0322,13.04,13.04,0,0,0-.9922,5.1523v.1279a13.4384,13.4384,0,0,0,.9922,5.248,12.1047,12.1047,0,0,0,2.6875,4.0313,12.5376,12.5376,0,0,0,3.84,2.5928A11.0965,11.0965,0,0,0,1013.0918,215.195Z" style="fill:#686f7a"/><path d="M1064.9951,214.6833a20.0285,20.0285,0,0,1-5.3125,3.6152,16.8523,16.8523,0,0,1-7.168,1.376,16.5268,16.5268,0,0,1-6.3994-1.248,15.7476,15.7476,0,0,1-5.248-3.52,16.7779,16.7779,0,0,1-3.5527-5.44,18.1343,18.1343,0,0,1-1.3115-7.0078v-.1279a18.8533,18.8533,0,0,1,1.1836-6.72,17.06,17.06,0,0,1,3.2959-5.4717,15.389,15.389,0,0,1,5.0244-3.6807,15.9681,15.9681,0,0,1,12.8965.0322,14.1873,14.1873,0,0,1,4.832,3.7119,16.5412,16.5412,0,0,1,2.9756,5.376,19.6464,19.6464,0,0,1,1.0244,6.3037,2.1464,2.1464,0,0,1-.7031,1.6641,2.3011,2.3011,0,0,1-1.5957.6406h-23.8779a13.66,13.66,0,0,0,1.2764,4.7676,11.7694,11.7694,0,0,0,2.584,3.5205,10.6629,10.6629,0,0,0,3.542,2.1758,11.9607,11.9607,0,0,0,4.2109.7363,12.3836,12.3836,0,0,0,5.36-1.0889,17.0925,17.0925,0,0,0,4.1465-2.752,2.225,2.225,0,0,1,1.4082-.5752,2.1525,2.1525,0,0,1,1.5361.6074,2.0691,2.0691,0,0,1-.1279,3.1045Zm-2.6885-14.1445a16.9512,16.9512,0,0,0-.9248-4.2881,11.4217,11.4217,0,0,0-2.042-3.584,9.8739,9.8739,0,0,0-3.1914-2.4639,9.7726,9.7726,0,0,0-4.3691-.9277,9.387,9.387,0,0,0-4.0215.8643,10.459,10.459,0,0,0-3.2539,2.3672,12.46,12.46,0,0,0-2.2969,3.5527,15.0572,15.0572,0,0,0-1.1484,4.4795Z" style="fill:#686f7a"/><path d="M1075.1064,187.9948a2.4577,2.4577,0,0,1,.7041-1.76,2.2982,2.2982,0,0,1,1.7275-.7363,2.4095,2.4095,0,0,1,2.4961,2.4961v3.584a15.5942,15.5942,0,0,1,4.3525-4.5762,11.8827,11.8827,0,0,1,6.9756-1.8877,13.97,13.97,0,0,1,5.3438.96,11.0693,11.0693,0,0,1,3.9688,2.72,11.9919,11.9919,0,0,1,2.4961,4.1924,15.9916,15.9916,0,0,1,.8633,5.376v18.3682a2.4247,2.4247,0,0,1-.7041,1.792,2.3529,2.3529,0,0,1-1.7275.7041,2.4063,2.4063,0,0,1-2.4961-2.4912V199.6208a10.6135,10.6135,0,0,0-2.3682-7.28,8.5741,8.5741,0,0,0-6.7842-2.6816,10.4273,10.4273,0,0,0-3.9355.7354,9.1693,9.1693,0,0,0-3.168,2.1064,9.5169,9.5169,0,0,0-2.08,3.2891,11.66,11.66,0,0,0-.7363,4.2148V216.736a2.4823,2.4823,0,0,1-.6719,1.7891,2.3308,2.3308,0,0,1-1.76.7021,2.4095,2.4095,0,0,1-2.4961-2.4961Z" style="fill:#686f7a"/><path d="M1140.6426,214.6833a20.0285,20.0285,0,0,1-5.3125,3.6152,16.8523,16.8523,0,0,1-7.168,1.376,16.5268,16.5268,0,0,1-6.3994-1.248,15.7476,15.7476,0,0,1-5.248-3.52,16.7779,16.7779,0,0,1-3.5527-5.44,18.1343,18.1343,0,0,1-1.3115-7.0078v-.1279a18.8533,18.8533,0,0,1,1.1836-6.72,17.06,17.06,0,0,1,3.2959-5.4717,15.389,15.389,0,0,1,5.0244-3.6807,15.9681,15.9681,0,0,1,12.8965.0322,14.1872,14.1872,0,0,1,4.832,3.7119,16.5412,16.5412,0,0,1,2.9756,5.376,19.6464,19.6464,0,0,1,1.0244,6.3037,2.1464,2.1464,0,0,1-.7031,1.6641,2.3011,2.3011,0,0,1-1.5957.6406H1116.706a13.66,13.66,0,0,0,1.2764,4.7676,11.7694,11.7694,0,0,0,2.584,3.5205,10.6629,10.6629,0,0,0,3.542,2.1758,11.9607,11.9607,0,0,0,4.2109.7363,12.3836,12.3836,0,0,0,5.36-1.0889,17.0925,17.0925,0,0,0,4.1465-2.752,2.225,2.225,0,0,1,1.4082-.5752,2.1525,2.1525,0,0,1,1.5361.6074,2.0691,2.0691,0,0,1-.1279,3.1045Zm-2.6885-14.1445a16.9512,16.9512,0,0,0-.9248-4.2881,11.4217,11.4217,0,0,0-2.042-3.584,9.8739,9.8739,0,0,0-3.1914-2.4639,9.7726,9.7726,0,0,0-4.3691-.9277,9.387,9.387,0,0,0-4.0215.8643,10.459,10.459,0,0,0-3.2539,2.3672,12.46,12.46,0,0,0-2.2969,3.5527,15.0572,15.0572,0,0,0-1.1484,4.4795Z" style="fill:#686f7a"/><path d="M169.0484,0c4.96,2.3692,10.4891,2.38,15.697,3.779q73.2539,19.6844,103.2419,89.28a25.0318,25.0318,0,0,1,1.1874,3.277c.9158,3.3237-.072,6.0188-3.1955,7.4976-3.3709,1.596-6.3005.5068-8.1437-2.6044-1.3438-2.2683-2.0691-4.8931-3.2275-7.2827-22.7945-47.0185-59.9179-74.28-111.8688-81.0893-3.295-.4319-6.7823-.6368-8.3076-4.406-1.4181-3.5045.66-5.9691,2.6168-8.4514Z" style="fill:#4195d1"/><path d="M141.0484,0c2.7,1.9748,5.3937,3.9743,4.3485,7.9688-1.1061,4.2272-4.5161,4.5625-8.1294,5.1683C84.8,21.9324,45.7742,48.9355,23.0106,97.8358c-.4908,1.0544-.8729,2.1691-1.4532,3.17-1.8557,3.2015-4.6845,4.2329-8.0777,2.9633-3.4337-1.2847-4.1682-4.2125-3.2844-7.399A70.8081,70.8081,0,0,1,17.2527,80.66C41.7662,37.544,78.8985,12.0006,127.1553,2.0152c2.6535-.5491,5.5577-.1987,7.8932-2.0152Z" style="fill:#4ab348"/><path d="M138.3929,303.6081A161.0887,161.0887,0,0,1,65.28,276.203c-24.023-16.5663-42.2173-37.9754-53.6914-64.9294-.2605-.612-.5038-1.232-.7367-1.8552-1.6969-4.5394-.7237-7.9449,2.6738-9.3749,3.7342-1.5717,7.02.0371,8.93,4.5885a132.4111,132.4111,0,0,0,25.079,39.4156c24.7794,26.6253,55.319,42.13,91.323,46.9744,4.6048.62,7.4932,3.34,6.9641,6.8526C145.1962,302.0292,142.4717,303.774,138.3929,303.6081Z" style="fill:#4195d1"/><path d="M161.8452,303.9965c-4.3124.136-7.1392-1.4028-7.5733-5.389-.46-4.2278,2.028-6.5151,6.0927-6.9843,14.2762-1.648,28.1752-4.7456,41.4238-10.4569q51.9092-22.3771,74.358-74.2484c.4633-1.0676.87-2.16,1.3516-3.2192,1.7646-3.8808,4.9133-5.0948,8.6169-3.4983,3.5948,1.5495,4.399,4.6687,2.9919,8.3463A142.2282,142.2282,0,0,1,266.92,247.3788C240.4511,280.1314,206.15,298.8325,164.3617,303.84,163.3723,303.959,162.3694,303.9655,161.8452,303.9965Z" style="fill:#f9b617"/><path d="M161.8579,285.0006a5.9128,5.9128,0,0,1-5.7018-3.2937c-1.4089-2.6947-.7552-5.1451,1.0486-7.3944,3.0155-3.76,6.1406-7.4364,9.0612-11.2686a196.2463,196.2463,0,0,0,30.0418-56.5184c.3188-.9439.5789-1.9138.9742-2.8248,1.43-3.2964,3.8358-4.9676,7.4963-4.0709,4.0722.9975,5.2259,3.9855,4.3507,7.6524a84.2353,84.2353,0,0,1-3.4056,10.3958,215.7261,215.7261,0,0,1-37.7294,63.5607C166.3454,283.17,164.6757,284.9971,161.8579,285.0006Z" style="fill:#ed556a"/><path d="M144.1581,278.56a5.7255,5.7255,0,0,1-3.32,5.6672,5.6027,5.6027,0,0,1-6.9254-.8971,87.1123,87.1123,0,0,1-6.6246-7.4649,209.351,209.351,0,0,1-36.2243-66.2276c-1.7685-5.3425-.6618-8.5077,3.3455-9.8648,4.0417-1.3687,6.7766.4455,8.5882,5.89a198.1892,198.1892,0,0,0,37.9791,66.8874C142.4784,274.3054,144.2742,275.9351,144.1581,278.56Z" style="fill:#ed556a"/><path d="M209.1994,97.8667c-.1568,4.0147-1.84,6.2385-4.9547,6.81-3.5557.6527-6.0924-.9673-7.3151-4.4952a220.8952,220.8952,0,0,0-10.5423-25.2962,202.7483,202.7483,0,0,0-28.0133-42.35c-.6482-.7578-1.3-1.5152-1.8994-2.3115-2.3283-3.0953-2.5078-6.4153.4309-8.9314,2.8664-2.4542,6.2-2.1362,8.9337.7106a156.7879,156.7879,0,0,1,13.4981,16.678,214.2293,214.2293,0,0,1,28.3893,54.1694C208.3872,94.6989,209.3639,96.5334,209.1994,97.8667Z" style="fill:#f9b617"/><path d="M145.0617,26.2308c.3306,2.15-1.3275,3.6756-2.7349,5.3037a205.6728,205.6728,0,0,0-37.2546,62.7411c-.8157,2.174-1.367,4.4585-2.3132,6.57-1.39,3.1008-3.9012,4.5621-7.2875,3.7238-3.4075-.8435-4.9048-3.2549-4.57-6.72a14.9868,14.9868,0,0,1,.7808-3.3823,215.1874,215.1874,0,0,1,41.46-71.6923c2.2324-2.5751,4.8191-3.6193,7.96-2.6222C143.724,20.9847,145.0344,23.0841,145.0617,26.2308Z" style="fill:#f9b617"/><path d="M149.7633,200.0016c-11.4859,0-22.9725-.07-34.4575.0361-4.2938.04-7.2071-1.5215-7.7194-5.9583-.4564-3.9523,2.5166-6.6283,7.519-6.645q34.7071-.1154,69.4148-.0079c4.6812.0125,7.4658,2.499,7.5137,6.2228.0515,4.0084-2.7107,6.32-7.8128,6.339C172.7353,200.0308,161.2492,200.0016,149.7633,200.0016Z" style="fill:#f8b618"/><path d="M149.5326,102.9983c11.4854,0,22.9709-.0191,34.4563.0085,5.2723.0127,7.9507,2.0831,8.0412,6.0825.0883,3.8993-2.8134,6.4767-7.7812,6.4889q-34.4561.0845-68.9124-.0092c-5.1-.0163-7.8656-2.5007-7.8032-6.4559.06-3.8109,3.0171-6.0965,8.0424-6.1072C126.8946,102.9818,138.2136,102.9984,149.5326,102.9983Z" style="fill:#f8b618"/><path d="M82.1708,151.1379a182.0152,182.0152,0,0,1,3.0014-32.2215c.9836-5.5836,3.9666-7.9566,8.3126-6.9238,3.7293.8863,5.138,4.1028,4.1549,9.2568a163.4943,163.4943,0,0,0-.1115,59.9869c.2051,1.1436.4392,2.2863.561,3.44.4108,3.8909-1.2075,6.6371-5.0945,7.2912-3.8643.65-6.3849-1.2993-7.1856-5.1906A175.5242,175.5242,0,0,1,82.1708,151.1379Z" style="fill:#4ab348"/><path d="M.0466,151.8464a125.76,125.76,0,0,1,3.8156-33.8251c1.3083-5.0889,3.8269-7.0156,7.9962-6.0424,4.8385,1.1294,4.9883,4.7361,4.1323,8.6277a143.6393,143.6393,0,0,0,.0578,62.3623c1.1,5.0167-.7025,8.3547-4.6336,8.8723-4.4936.5917-6.6144-1.93-7.5644-6.1C1.2528,174.34-.2933,162.8413.0466,151.8464Z" style="fill:#ed556a"/><path d="M299.7978,151.8036a163.1675,163.1675,0,0,1-3.9675,33.87c-1.1149,4.7691-4.298,7.1049-8.0825,6.1233-3.6594-.9492-5.3228-4.1938-4.2738-8.7581A137.6959,137.6959,0,0,0,283.5,120.17c-.9457-4.0609.1091-6.9951,4.2135-8.22,3.8028-1.1351,6.8977.9554,8.0019,5.4432A157.6924,157.6924,0,0,1,299.7978,151.8036Z" style="fill:#4c63aa"/><path d="M217.1756,151.7069a154.6414,154.6414,0,0,1-3.1219,33.9027c-.9289,4.8627-3.7452,7.181-7.7367,6.35-3.7056-.7713-5.4438-3.8454-4.5668-8.4951a167.0921,167.0921,0,0,0,.1506-62.9656c-.6983-3.6437-.2735-6.7673,3.4921-8.3229,4.0858-1.6878,7.5843.5309,8.6683,5.5185A142.61,142.61,0,0,1,217.1756,151.7069Z" style="fill:#4ab348"/><path d="M54.0693,102.9989c6.1413,0,12.2837.0694,18.4235-.0245,4.1255-.0631,6.7556,1.7353,7.32,5.8224.5017,3.63-2.4819,6.6891-6.9769,6.7511-12.9439.1787-25.8925.1581-38.8375.0326-3.9968-.0387-6.7647-2.2508-6.7056-6.4473.0589-4.178,2.6808-6.1625,6.8585-6.1426C40.7907,103.0223,47.43,102.9991,54.0693,102.9989Z" style="fill:#4296d2"/><path d="M53.4325,187.8582c6.33.0016,12.6612.0384,18.9913-.0116,4.0978-.0323,6.7822,1.7988,7.3849,5.8781.5349,3.62-2.46,6.7446-6.9958,6.8132q-19.2363.291-38.4793.0046c-4.6127-.067-7.4443-2.9745-7.0763-6.6978.449-4.5421,3.4676-6.0452,7.6837-6.0037C41.1044,187.9018,47.2687,187.8566,53.4325,187.8582Z" style="fill:#4296d2"/><path d="M246.1541,115.6235c-6.1585.0051-12.3185.09-18.475-.0211-5.1741-.0934-7.77-2.37-7.7539-6.4656.0163-4.05,2.6289-6.119,7.91-6.13,12.3169-.0262,24.6342.0371,36.9508-.033,4.27-.0243,7.1811,1.3773,7.3859,6.0863.1792,4.1181-2.1293,6.3851-7.0438,6.5173C258.8073,115.7471,252.4789,115.6185,246.1541,115.6235Z" style="fill:#ed5669"/><path d="M246.0838,187.8587q9.4842,0,18.9685.0008c4.0075.0015,6.82,1.5029,7.1163,5.9137.2755,4.0961-2.0516,6.7029-6.8152,6.7711q-19.2139.2752-38.434.0142c-4.5963-.0568-7.291-2.8679-6.96-6.7419.3654-4.2782,3.1061-5.9629,7.156-5.9595Q236.6,187.8652,246.0838,187.8587Z" style="fill:#ed5669"/></g></g></svg>