<svg width="131" height="8" viewBox="0 0 131 8" fill="none" xmlns="http://www.w3.org/2000/svg">
<path d="M1.70813 5.15341C2.03246 5.18944 2.12747 5.45763 2.40434 5.56597C3.13104 5.85034 4.41683 5.74647 5.18917 5.74647C6.19738 5.74647 7.09611 5.41388 8.07714 5.25655C10.1472 4.92456 12.2832 4.96 14.3688 4.77952C17.5883 4.50091 20.7794 3.89455 24.0126 3.78678C27.9095 3.65688 31.7748 3.42643 35.6676 3.19371C45.296 2.6181 54.9526 2.19642 64.5989 2.13651C75.1812 2.07078 85.756 1.8615 96.3408 1.90444C103.858 1.93493 111.364 2.60064 118.877 2.60064C122.166 2.60064 125.904 2.60064 129.346 2.60064" stroke="#D5FA51" stroke-width="3" stroke-linecap="round"/>
</svg>
