<svg width="48" height="45" viewBox="0 0 48 45" fill="none" xmlns="http://www.w3.org/2000/svg">
<path d="M46.6375 39.4593H37.9821V15.9679C37.9821 14.8043 37.0355 13.8577 35.8721 13.8577H20.1952V13.1248H21.2418C21.681 13.1248 22.0369 12.7688 22.0369 12.3298V0.795052C22.0369 0.35593 21.681 0 21.2418 0H17.3527C16.9135 0 16.5577 0.356022 16.5577 0.795052V12.3298C16.5577 12.7689 16.9135 13.1248 17.3527 13.1248H18.6051V13.8577H2.11001C0.946613 13.8578 0 14.8043 0 15.9679V41.1959C0 43.1143 1.56083 44.675 3.47907 44.675H12.6541H37.1869H44.2288C45.9953 44.675 47.4325 43.2379 47.4325 41.4713V40.2543C47.4326 39.8153 47.0766 39.4593 46.6375 39.4593ZM18.1479 11.5347V1.5902H20.4469V11.5348H18.1479V11.5347ZM20.1952 18.9133V18.1465H33.6933V36.7607H4.28876V18.1465H18.605V18.9133C18.605 19.2103 18.3633 19.452 18.0661 19.452H8.95401C7.78006 19.452 6.82501 20.407 6.82501 21.581V24.7171C6.82501 25.8911 7.78006 26.846 8.95401 26.846H9.84624V32.0216C9.84624 32.8787 10.2805 33.6562 11.0079 34.1017C11.7536 34.5585 12.6689 34.591 13.4569 34.1891C13.5788 34.1268 13.7816 34.0441 14.1318 34.0441C14.7121 34.0441 14.9566 34.2521 15.3619 34.5967C15.8241 34.9898 16.4573 35.5282 17.6222 35.5282C18.7871 35.5282 19.4202 34.9898 19.8824 34.5967C20.2877 34.2521 20.5324 34.0441 21.1126 34.0441C21.693 34.0441 21.9377 34.2521 22.343 34.5968C22.8053 34.9899 23.4384 35.5282 24.6034 35.5282C25.7685 35.5282 26.4016 34.9899 26.8639 34.5968C27.0262 34.4588 27.1796 34.3284 27.3378 34.2342C28.2947 33.6646 28.8893 32.6099 28.8893 31.4818V30.2648H29.7034C31.0291 30.2648 32.1075 29.1863 32.1075 27.8606V24.2413C32.1075 22.9158 31.0291 21.8371 29.7034 21.8371H12.2503C10.9246 21.8371 9.84615 22.9156 9.84615 24.2413V25.2559H8.95392C8.65672 25.2559 8.41502 25.0142 8.41502 24.717V21.5809C8.41502 21.2838 8.65672 21.042 8.95392 21.042H18.066C19.24 21.0422 20.1952 20.087 20.1952 18.9133ZM11.7014 25.2559H11.4363V24.2413C11.4363 23.7925 11.8014 23.4273 12.2503 23.4273C12.6991 23.4273 13.0642 23.7924 13.0642 24.2413V27.8606C13.0642 28.3094 12.6991 28.6746 12.2503 28.6746C11.8014 28.6746 11.4363 28.3095 11.4363 27.8606V26.8461H11.7014C12.1406 26.8461 12.4964 26.4901 12.4964 26.051C12.4965 25.6118 12.1405 25.2559 11.7014 25.2559ZM14.5123 23.4273H29.7035C30.1522 23.4273 30.5174 23.7924 30.5174 24.2413V27.8606C30.5174 28.3094 30.1523 28.6746 29.7035 28.6746H14.5123C14.6041 28.4203 14.6544 28.1462 14.6544 27.8606V24.2413C14.6544 23.9557 14.604 23.6816 14.5123 23.4273ZM27.2992 30.2647V31.4817C27.2992 32.0522 27.0024 32.5833 26.5245 32.8676C26.2513 33.0302 26.0295 33.2188 25.8338 33.3853C25.4284 33.7299 25.1837 33.9379 24.6034 33.9379C24.0231 33.9379 23.7784 33.7299 23.3731 33.3852C22.9108 32.9921 22.2777 32.4538 21.1126 32.4538C19.9476 32.4538 19.3145 32.9922 18.8523 33.3853C18.447 33.7299 18.2023 33.9379 17.6221 33.9379C17.0418 33.9379 16.7972 33.7299 16.3919 33.3853C15.9298 32.9922 15.2966 32.4538 14.1317 32.4538C13.6116 32.4538 13.1544 32.558 12.7339 32.7726C12.4432 32.9211 12.1083 32.9111 11.8382 32.7455C11.5828 32.5891 11.4363 32.3253 11.4363 32.0215V30.1227C11.6906 30.2145 11.9647 30.2647 12.2502 30.2647H27.2992ZM1.5902 15.9679C1.5902 15.6812 1.82347 15.4479 2.1101 15.4479H18.6051V16.5564H3.49371C3.05449 16.5564 2.69865 16.9124 2.69865 17.3514V37.5558C2.69865 37.9949 3.05449 38.3508 3.49371 38.3508H34.4883C34.9275 38.3508 35.2834 37.9948 35.2834 37.5558V17.3513C35.2834 16.9122 34.9275 16.5563 34.4883 16.5563H20.1952V15.4478H35.872C36.1586 15.4478 36.3919 15.681 36.3919 15.9678V39.4592H1.5902V15.9679ZM3.47907 43.0848C2.4375 43.0848 1.5902 42.2373 1.5902 41.1958V41.0494H9.45048V41.4712C9.45048 42.0594 9.61047 42.6105 9.88821 43.0848H3.47907ZM44.2288 43.0848H37.187H12.6541C11.7644 43.0848 11.0406 42.361 11.0406 41.4712V41.0494H37.1869H45.8423V41.4712C45.8423 42.361 45.1186 43.0848 44.2288 43.0848Z" fill="#0C0C0E"/>
</svg>
