<svg width="57" height="57" viewBox="0 0 57 57" fill="none" xmlns="http://www.w3.org/2000/svg">
<circle cx="28.5" cy="28.5" r="28.5" fill="white"/>
<path d="M19.3955 40.3737H22.3849C22.8106 40.3737 23.1557 40.0286 23.1557 39.603V32.8462C23.1557 32.4205 22.8106 32.0754 22.3849 32.0754H19.3955C18.9699 32.0754 18.6248 32.4206 18.6248 32.8462V39.603C18.6248 40.0286 18.9699 40.3737 19.3955 40.3737Z" fill="#0C0C0E"/>
<path d="M26.1919 40.3738H29.1813C29.607 40.3738 29.9521 40.0286 29.9521 39.603V28.3152C29.9521 27.8895 29.607 27.5444 29.1813 27.5444H26.1919C25.7662 27.5444 25.4211 27.8896 25.4211 28.3152V39.603C25.4211 40.0286 25.7663 40.3738 26.1919 40.3738Z" fill="#0C0C0E"/>
<path d="M32.9886 40.3738H35.978C36.4037 40.3738 36.7488 40.0286 36.7488 39.603V22.878C36.7488 22.4523 36.4036 22.1072 35.978 22.1072H32.9886C32.5629 22.1072 32.2178 22.4523 32.2178 22.878V39.603C32.2178 40.0286 32.5629 40.3738 32.9886 40.3738Z" fill="#0C0C0E"/>
<path d="M39.7852 40.3737H42.7746C43.2003 40.3737 43.5454 40.0286 43.5454 39.603V17.4407C43.5454 17.015 43.2002 16.6699 42.7746 16.6699H39.7852C39.3595 16.6699 39.0144 17.0151 39.0144 17.4407V39.603C39.0144 40.0286 39.3596 40.3737 39.7852 40.3737Z" fill="#0C0C0E"/>
<path d="M43.2278 42.2995H17.5832C17.1576 42.2995 16.8124 41.9543 16.8124 41.5287V15.7708C16.8124 15.3452 16.4673 15 16.0416 15H15.7708C15.3452 15 15 15.3452 15 15.7708V43.2278C15 43.6535 15.3452 43.9986 15.7708 43.9986H43.2278C43.6535 43.9986 43.9986 43.6535 43.9986 43.2278V43.0703C43.9986 42.6446 43.6535 42.2995 43.2278 42.2995Z" fill="#0C0C0E"/>
</svg>
