<svg width="63" height="60" viewBox="0 0 63 60" fill="none" xmlns="http://www.w3.org/2000/svg">
<path d="M5.69166 9.03462C5.06138 9.79095 4.69895 10.7876 4.27719 11.6636C3.19298 13.9154 2.12838 16.1734 1.54451 18.6175C0.37434 23.5159 1.24016 28.1095 2.72201 32.8067C4.25705 37.6725 7.55558 41.9855 12.5345 43.6485C15.8936 44.7705 19.7541 45.623 23.317 45.1444C27.016 44.6476 30.7778 43.0491 33.759 40.8195C38.9056 36.9705 44.0297 32.3107 46.9114 26.4675C48.2042 23.8457 48.5973 21.0541 48.8072 18.1732C49.0347 15.0504 48.6612 12.0078 47.3187 9.1457C45.2218 4.6754 40.9227 1.35614 35.9066 1.02173C29.1482 0.571177 22.7252 7.20659 21.3323 13.4336C19.9088 19.7978 21.905 26.712 25.4054 32.1031C27.155 34.7977 29.6203 37.3439 32.5741 38.7015C35.1769 39.8979 38.2354 40.6701 41.0831 40.9158C43.2179 41.1 45.4707 41.0943 47.4594 40.1975C49.521 39.2677 51.4365 37.7505 53.0876 36.2281C54.6312 34.8048 55.8015 33.25 56.4942 31.2515C56.9006 30.0792 57.3364 28.4106 56.6275 27.2524C55.4116 25.2659 51.4485 25.5599 49.7255 26.4823C45.2118 28.8987 42.858 35.4876 43.2678 40.3234C43.8017 46.6233 47.0259 52.4856 52.7174 55.4382C55.2102 56.7315 58.3227 57.423 61.145 57.423" stroke="#0C0C0E" stroke-linecap="round"/>
<path d="M57.249 58.8917C58.6065 58.6871 59.8517 58.104 61.1711 57.7568C61.4433 57.6852 61.7044 57.586 61.9734 57.5053C61.9937 57.4992 62.0876 57.4754 62.0477 57.4354C61.9321 57.3199 61.745 57.2382 61.611 57.1473C60.8973 56.6631 60.2214 56.1141 59.5508 55.5725C59.0747 55.188 58.6996 54.7336 58.273 54.3014C58.1924 54.2197 58.1102 54.1158 58.0071 54.0642" stroke="#0C0C0E" stroke-linecap="round"/>
</svg>
