<svg width="57" height="57" viewBox="0 0 57 57" fill="none" xmlns="http://www.w3.org/2000/svg">
<circle cx="28.5" cy="28.5" r="28.5" fill="white"/>
<path d="M29.2014 14L16 19.0292V21.3872H16.9426V22.0944H41.4602V21.3872H42.4029V19.0292L29.2014 14Z" fill="#0C0C0E"/>
<path d="M41.4602 38.8309H16.9426V40.7181H16V44.0177H42.4029V40.7181H41.4602V38.8309Z" fill="#0C0C0E"/>
<path d="M35.3308 36.0022V37.4166H40.0458V36.0022H39.574V24.4515H40.0458V23.0371H35.3308V24.4515H35.8026V36.0022H35.3308Z" fill="#0C0C0E"/>
<path d="M26.8435 36.0022V37.4166H31.5585V36.0022H31.0877V24.4515H31.5585V23.0371H26.8435V24.4515H27.3153V36.0022H26.8435Z" fill="#0C0C0E"/>
<path d="M18.3569 36.0022V37.4166H23.0719V36.0022H22.6002V24.4515H23.0719V23.0371H18.3569V24.4515H18.8287V36.0022H18.3569Z" fill="#0C0C0E"/>
</svg>
