<svg width="87" height="87" viewBox="0 0 87 87" fill="none" xmlns="http://www.w3.org/2000/svg">
<circle cx="43.5" cy="43.5" r="42.5" stroke="#AEB4C1" stroke-width="2"/>
<path d="M64 42H58V24C58 23.4696 57.7893 22.9609 57.4142 22.5858C57.0391 22.2107 56.5304 22 56 22H32C31.4696 22 30.9609 22.2107 30.5858 22.5858C30.2107 22.9609 30 23.4696 30 24V34H24C23.4696 34 22.9609 34.2107 22.5858 34.5858C22.2107 34.9609 22 35.4696 22 36V64C22 64.5304 22.2107 65.0391 22.5858 65.4142C22.9609 65.7893 23.4696 66 24 66H64C64.5304 66 65.0391 65.7893 65.4142 65.4142C65.7893 65.0391 66 64.5304 66 64V44C66 43.4696 65.7893 42.9609 65.4142 42.5858C65.0391 42.2107 64.5304 42 64 42ZM46 44V62H26V38H46V44ZM48 34H34V26H54V42H50V36C50 35.4696 49.7893 34.9609 49.4142 34.5858C49.0391 34.2107 48.5304 34 48 34ZM62 62H58V58C58 57.4696 57.7893 56.9609 57.4142 56.5858C57.0391 56.2107 56.5304 56 56 56C55.4696 56 54.9609 56.2107 54.5858 56.5858C54.2107 56.9609 54 57.4696 54 58V62H50V46H62V62ZM28 40H32V44H28V40ZM36 40H44V44H36V40ZM28 48H32V52H28V48ZM36 48H44V52H36V48ZM28 56H32V60H28V56ZM36 56H44V60H36V56Z" fill="#AEB4C1"/>
</svg>
