<svg width="57" height="57" viewBox="0 0 57 57" fill="none" xmlns="http://www.w3.org/2000/svg">
<circle cx="28.5" cy="28.5" r="28.5" fill="#0C0C0E"/>
<path d="M47.4302 38.2641H41.2259V21.4376C41.2259 20.6041 40.5473 19.9261 39.7134 19.9261H28.4761V19.4011H29.2263C29.5412 19.4011 29.7962 19.1461 29.7962 18.8316V10.5695C29.7962 10.2549 29.5412 10 29.2263 10H26.4386C26.1237 10 25.8687 10.255 25.8687 10.5695V18.8316C25.8687 19.1462 26.1237 19.4011 26.4386 19.4011H27.3363V19.9261H15.5125C14.6785 19.9261 14 20.6041 14 21.4376V39.508C14 40.8821 15.1188 42 16.4938 42H23.0706H40.6559H45.7035C46.9698 42 48 40.9706 48 39.7052V38.8335C48.0001 38.5191 47.7449 38.2641 47.4302 38.2641ZM27.0085 18.2621V11.139H28.6565V18.2622H27.0085V18.2621ZM28.4761 23.5473V22.998H38.1516V36.3311H17.0742V22.998H27.3362V23.5473C27.3362 23.76 27.1629 23.9332 26.9499 23.9332H20.4183C19.5768 23.9332 18.8922 24.6172 18.8922 25.4581V27.7045C18.8922 28.5454 19.5768 29.2294 20.4183 29.2294H21.0579V32.9366C21.0579 33.5505 21.3692 34.1074 21.8905 34.4265C22.425 34.7537 23.0812 34.777 23.646 34.4891C23.7334 34.4445 23.8787 34.3852 24.1298 34.3852C24.5457 34.3852 24.721 34.5342 25.0116 34.7811C25.3429 35.0626 25.7967 35.4483 26.6318 35.4483C27.4667 35.4483 27.9206 35.0626 28.2519 34.7811C28.5424 34.5342 28.7178 34.3852 29.1337 34.3852C29.5497 34.3852 29.7251 34.5342 30.0156 34.7811C30.347 35.0627 30.8008 35.4483 31.6359 35.4483C32.4711 35.4483 32.9249 35.0627 33.2563 34.7811C33.3726 34.6823 33.4826 34.5889 33.5959 34.5214C34.2819 34.1134 34.7081 33.358 34.7081 32.5499V31.6782H35.2916C36.2419 31.6782 37.0149 30.9057 37.0149 29.9561V27.3637C37.0149 26.4142 36.2419 25.6416 35.2916 25.6416H22.7811C21.8308 25.6416 21.0578 26.4141 21.0578 27.3637V28.0904H20.4182C20.2052 28.0904 20.032 27.9173 20.032 27.7044V25.4581C20.032 25.2452 20.2052 25.0721 20.4182 25.0721H26.9498C27.7914 25.0722 28.4761 24.388 28.4761 23.5473ZM22.3877 28.0904H22.1977V27.3637C22.1977 27.0422 22.4594 26.7806 22.7811 26.7806C23.1029 26.7806 23.3646 27.0421 23.3646 27.3637V29.9561C23.3646 30.2776 23.1029 30.5391 22.7811 30.5391C22.4594 30.5391 22.1977 30.2776 22.1977 29.9561V29.2294H22.3877C22.7025 29.2294 22.9576 28.9744 22.9576 28.66C22.9576 28.3454 22.7024 28.0904 22.3877 28.0904ZM24.4026 26.7806H35.2917C35.6134 26.7806 35.8751 27.0421 35.8751 27.3637V29.9561C35.8751 30.2776 35.6134 30.5391 35.2917 30.5391H24.4026C24.4684 30.357 24.5044 30.1607 24.5044 29.9561V27.3637C24.5044 27.1591 24.4682 26.9628 24.4026 26.7806ZM33.5683 31.6781V32.5498C33.5683 32.9585 33.3555 33.3389 33.0129 33.5426C32.8172 33.659 32.6581 33.7941 32.5179 33.9134C32.2273 34.1602 32.0519 34.3092 31.6359 34.3092C31.22 34.3092 31.0445 34.1602 30.754 33.9133C30.4226 33.6317 29.9688 33.2461 29.1337 33.2461C28.2986 33.2461 27.8448 33.6318 27.5135 33.9134C27.223 34.1602 27.0476 34.3092 26.6317 34.3092C26.2157 34.3092 26.0404 34.1602 25.7499 33.9134C25.4186 33.6318 24.9648 33.2461 24.1297 33.2461C23.7569 33.2461 23.4292 33.3208 23.1278 33.4745C22.9194 33.5809 22.6793 33.5737 22.4857 33.4551C22.3027 33.343 22.1977 33.1541 22.1977 32.9365V31.5764C22.38 31.6421 22.5764 31.6781 22.781 31.6781H33.5683ZM15.1399 21.4376C15.1399 21.2322 15.3071 21.0651 15.5125 21.0651H27.3363V21.8591H16.5043C16.1895 21.8591 15.9344 22.1141 15.9344 22.4286V36.9006C15.9344 37.2151 16.1895 37.4701 16.5043 37.4701H38.7215C39.0363 37.4701 39.2914 37.2151 39.2914 36.9006V22.4285C39.2914 22.114 39.0363 21.859 38.7215 21.859H28.4761V21.065H39.7133C39.9188 21.065 40.086 21.2321 40.086 21.4375V38.264H15.1399V21.4376ZM16.4938 40.861C15.7472 40.861 15.1399 40.2539 15.1399 39.5079V39.403H20.7742V39.7051C20.7742 40.1265 20.8889 40.5212 21.088 40.861H16.4938ZM45.7036 40.861H40.6559H23.0706C22.4328 40.861 21.914 40.3425 21.914 39.7051V39.403H40.6559H46.8601V39.7051C46.8601 40.3425 46.3414 40.861 45.7036 40.861Z" fill="white"/>
</svg>
