<svg width="93" height="55" viewBox="0 0 93 55" fill="none" xmlns="http://www.w3.org/2000/svg">
<path d="M1 27.0256C3.44191 24.7363 5.72711 23.3313 9.11419 23.007C12.7348 22.6604 17.5578 22.0767 20.2199 25.0998C20.9306 25.9068 22.0615 27.4953 21.5166 28.669C21.3199 29.0927 19.8917 29.6162 19.5394 29.1825C18.6353 28.0699 20.9509 24.9884 21.5423 24.2524C23.3234 22.0356 25.6121 20.6658 28.5266 20.8629C33.1958 21.1787 38.0787 23.9955 41.3013 27.2182C47.7825 33.6993 52.3208 43.6971 52.7408 52.8318C52.7973 54.0612 52.7665 55.3761 52.7665 53.0629C52.7665 43.6647 52.9891 34.6414 56.4641 25.7417C59.0185 19.1999 62.2652 12.8176 67.788 8.35783C69.0483 7.34015 70.443 6.52398 71.7167 5.53326" stroke="#0C0C0E" stroke-linecap="round"/>
<path d="M51.9879 12.777C52.8104 10.6694 54.638 9.04771 56.2179 7.49711C58.608 5.15123 61.1396 3.06269 63.7649 1" stroke="#0C0C0E" stroke-linecap="round"/>
<path d="M64.3126 30.8532C67.988 28.0626 71.7231 25.6004 76.0896 23.9757C80.6996 22.2603 85.2173 21.9203 90.0576 21.8151" stroke="#0C0C0E" stroke-linecap="round"/>
<path d="M74.1724 43.9996C80.0707 42.4907 85.8988 41.5983 91.9747 41.2607" stroke="#0C0C0E" stroke-linecap="round"/>
</svg>
