<svg width="57" height="57" viewBox="0 0 57 57" fill="none" xmlns="http://www.w3.org/2000/svg">
<circle cx="28.5" cy="28.5" r="28.5" fill="#0C0C0E"/>
<path d="M12.7114 33.476H30.6445C30.9125 33.476 31.1318 33.2567 31.1318 32.9887V18.4619C31.1318 17.6545 30.4773 17 29.6698 17H13.6861C12.8787 17 12.2242 17.6545 12.2242 18.4619V32.9886C12.2241 33.2567 12.4434 33.476 12.7114 33.476ZM16.3251 23.687C16.3251 23.353 16.5958 23.0821 16.9299 23.0821H21.714V21.3775C21.714 20.8386 22.3657 20.5688 22.7467 20.95L26.8692 25.0744C27.1052 25.3106 27.1052 25.6935 26.8692 25.9296L22.7467 30.0534C22.3656 30.4346 21.714 30.1648 21.714 29.6258V27.9208H16.9299C16.5958 27.9208 16.325 27.65 16.325 27.316L16.3251 23.687ZM18.4227 37.389H12.4873C12.2193 37.389 12 37.1698 12 36.9017V35.4203C12 35.1523 12.2193 34.933 12.4873 34.933H19.7677C19.0562 35.5519 18.5641 36.4144 18.4227 37.389ZM46.1507 34.933H44.9665V28.3104C44.9665 27.5357 44.7326 26.7754 44.2989 26.1322L41.3313 21.7366C40.6051 20.6646 39.3966 20.0213 38.1004 20.0213H33.5002C32.9592 20.0213 32.5255 20.4599 32.5255 20.9959V34.933H24.9917C25.708 35.5519 26.2002 36.4144 26.3415 37.3891H34.2847C34.5673 35.4545 36.2339 33.9584 38.2465 33.9584C40.2592 33.9584 41.9208 35.4545 42.2035 37.3891H46.1507C46.4187 37.3891 46.638 37.1698 46.638 36.9017V35.4203C46.638 35.1523 46.4187 34.933 46.1507 34.933ZM41.2971 27.0093H35.2252C34.9572 27.0093 34.7379 26.7949 34.7379 26.522V23.1547C34.7379 22.8867 34.9572 22.6674 35.2252 22.6674H38.924C39.0848 22.6674 39.231 22.7453 39.3236 22.872L41.6968 26.2443C41.9208 26.5659 41.6918 27.0093 41.2971 27.0093ZM22.3797 34.933C20.7083 34.933 19.3486 36.2926 19.3486 37.969C19.3486 39.6404 20.7082 41 22.3797 41C24.0561 41 25.4108 39.6405 25.4108 37.969C25.4107 36.2926 24.0561 34.933 22.3797 34.933ZM22.3797 39.4845C21.5415 39.4845 20.8642 38.8022 20.8642 37.969C20.8642 37.1307 21.5416 36.4535 22.3797 36.4535C23.2179 36.4535 23.8953 37.1308 23.8953 37.969C23.8953 38.8022 23.2178 39.4845 22.3797 39.4845ZM38.2465 34.933C36.5702 34.933 35.2154 36.2926 35.2154 37.969C35.2154 39.6404 36.5702 41 38.2465 41C39.9179 41 41.2775 39.6405 41.2775 37.969C41.2776 36.2926 39.9181 34.933 38.2465 34.933ZM38.2465 39.4845C37.4083 39.4845 36.731 38.8022 36.731 37.969C36.731 37.1307 37.4083 36.4535 38.2465 36.4535C39.0846 36.4535 39.762 37.1308 39.762 37.969C39.7621 38.8022 39.0847 39.4845 38.2465 39.4845Z" fill="white"/>
</svg>
