<svg width="87" height="87" viewBox="0 0 87 87" fill="none" xmlns="http://www.w3.org/2000/svg">
<circle cx="43.5" cy="43.5" r="42.5" stroke="#AEB4C1" stroke-width="2"/>
<path d="M63 35.4286L55.4828 39.6676C51.2918 42.0309 49.1963 43.2127 46.9771 43.676C45.0129 44.0859 42.9871 44.0859 41.0229 43.676C38.8038 43.2127 36.7083 42.0309 32.5172 39.6676L25 35.4286M31.7556 59H56.2444C58.6091 59 59.7915 59 60.6947 58.5329C61.4891 58.1221 62.1351 57.4664 62.5398 56.66C63 55.7433 63 54.5431 63 52.1429V35.8571C63 33.4569 63 32.2568 62.5398 31.34C62.1351 30.5336 61.4891 29.878 60.6947 29.4671C59.7915 29 58.6091 29 56.2444 29H31.7556C29.3909 29 28.2086 29 27.3054 29.4671C26.5109 29.878 25.865 30.5336 25.4602 31.34C25 32.2568 25 33.4569 25 35.8571V52.1429C25 54.5431 25 55.7433 25.4602 56.66C25.865 57.4664 26.5109 58.1221 27.3054 58.5329C28.2086 59 29.3909 59 31.7556 59Z" stroke="#AEB4C1" stroke-width="4" stroke-linecap="round" stroke-linejoin="round"/>
</svg>
