<svg width="57" height="57" viewBox="0 0 57 57" fill="none" xmlns="http://www.w3.org/2000/svg">
<circle cx="28.5" cy="28.5" r="28.5" fill="#0C0C0E"/>
<path d="M24.0825 33.5067L24.9563 33.0022C25.3125 32.7966 25.4345 32.3411 25.2289 31.9848L23.5732 29.117C23.4352 28.8781 23.1849 28.7445 22.9276 28.7445C22.8012 28.7445 22.6732 28.7766 22.5559 28.8445L21.6821 29.349C21.562 29.4182 21.4348 29.4498 21.3108 29.4498C20.9218 29.4498 20.565 29.1387 20.565 28.704V27.695C20.565 27.2837 20.2316 26.9502 19.8202 26.9502H16.5086C16.0973 26.9502 15.7638 27.2836 15.7638 27.695V28.704C15.7638 29.1387 15.4069 29.4498 15.018 29.4498C14.894 29.4498 14.7668 29.4182 14.6467 29.349L13.7729 28.8445C13.6557 28.7768 13.5275 28.7446 13.4012 28.7445C13.1438 28.7445 12.8936 28.8781 12.7556 29.117L11.0999 31.9848C10.8943 32.3411 11.0163 32.7966 11.3725 33.0022L12.2463 33.5067C12.7428 33.7934 12.7428 34.51 12.2463 34.7966L11.3725 35.3011C11.0162 35.5068 10.8943 35.9622 11.0999 36.3185L12.7556 39.1863C12.8936 39.4252 13.1439 39.5588 13.4012 39.5588C13.5276 39.5588 13.6557 39.5266 13.7729 39.4589L14.6467 38.9544C14.7668 38.8852 14.894 38.8535 15.018 38.8535C15.407 38.8535 15.7638 39.1646 15.7638 39.5994V40.6083C15.7638 41.0196 16.0972 41.3531 16.5086 41.3531H19.8201C20.2313 41.3531 20.5649 41.0197 20.5649 40.6083V39.5994C20.5649 39.1646 20.9218 38.8535 21.3107 38.8535C21.4347 38.8535 21.5619 38.8852 21.6819 38.9544L22.5558 39.4589C22.673 39.5266 22.8012 39.5588 22.9274 39.5588C23.1849 39.5588 23.4351 39.4252 23.573 39.1863L25.2288 36.3185C25.4344 35.9622 25.3123 35.5068 24.9562 35.3011L24.0824 34.7966C23.586 34.51 23.586 33.7932 24.0825 33.5067ZM18.1645 36.3612C16.9441 36.3612 15.955 35.3719 15.955 34.1517C15.955 32.9313 16.9443 31.9422 18.1645 31.9422C19.3847 31.9422 20.374 32.9315 20.374 34.1517C20.374 35.3719 19.3847 36.3612 18.1645 36.3612Z" fill="white"/>
<path d="M23.508 13.0051C23.1084 12.6057 22.461 12.6057 22.0615 13.0051C21.662 13.4046 21.662 14.0522 22.0615 14.4516L23.8892 16.2792C17.1716 16.6118 11.734 21.8883 11.1455 28.5366L11.2967 28.2747C11.7293 27.5254 12.5358 27.0599 13.4012 27.06C13.4195 27.06 13.4377 27.0616 13.456 27.0622C14.6085 22.2711 18.7861 18.6475 23.8475 18.3327L22.0615 20.1186C21.662 20.5181 21.662 21.1657 22.0615 21.5652C22.2613 21.7649 22.5229 21.8647 22.7847 21.8647C23.0464 21.8647 23.3082 21.7649 23.5079 21.5652L27.0647 18.0083C27.2565 17.8164 27.3642 17.5563 27.3642 17.2851C27.3642 17.0138 27.2565 16.7537 27.0647 16.5619L23.508 13.0051Z" fill="white"/>
<path d="M36.4327 18.2376C38.7038 18.2376 40.5515 16.39 40.5515 14.1189C40.5515 11.8476 38.7038 10 36.4327 10C34.1616 10 32.314 11.8476 32.314 14.1188C32.314 16.3899 34.1616 18.2376 36.4327 18.2376Z" fill="white"/>
<path d="M44.4561 29.3409V23.6787C44.4561 22.1114 43.4489 20.7215 41.9594 20.2336L41.9526 20.2313L39.7741 19.8706C39.5886 19.8136 39.3905 19.9118 39.3238 20.0947L36.8519 26.877C36.7093 27.2683 36.1559 27.2683 36.0134 26.877L33.5414 20.0947C33.4876 19.947 33.3481 19.8544 33.1988 19.8544C33.1633 19.8544 30.9127 20.2308 30.9127 20.2308C29.411 20.7313 28.4076 22.1233 28.4076 23.6975V29.3409C28.4076 30.1867 29.0932 30.8722 29.9389 30.8722H42.9247C43.7706 30.8722 44.4561 30.1866 44.4561 29.3409Z" fill="white"/>
<path d="M46.2765 30.6945C46.191 31.8649 45.2308 32.5816 44.0601 32.6665C43.1631 37.8009 38.8263 41.7656 33.5207 42.0955L35.3066 40.3096C35.7061 39.91 35.7061 39.2625 35.3066 38.863C34.9071 38.4637 34.2597 38.4637 33.8601 38.863L30.3034 42.4199C29.9039 42.8194 29.9039 43.467 30.3034 43.8664L33.8601 47.4231C34.0599 47.6228 34.3215 47.7226 34.5833 47.7226C34.8451 47.7226 35.1069 47.6228 35.3065 47.4231C35.706 47.0237 35.706 46.376 35.3065 45.9766L33.4789 44.149C40.5952 43.7967 46.2765 37.8966 46.2765 30.6945Z" fill="white"/>
<path d="M37.3304 19.7933C37.2355 19.6899 37.0967 19.6378 36.9562 19.6378H35.909C35.7687 19.6378 35.6298 19.6899 35.5348 19.7933C35.3879 19.9534 35.3665 20.1847 35.4708 20.3655L36.0306 21.2093L35.7685 23.42L36.2846 24.7927C36.3349 24.9308 36.5301 24.9308 36.5805 24.7927L37.0966 23.42L36.8345 21.2093L37.3943 20.3655C37.4987 20.1847 37.4773 19.9534 37.3304 19.7933Z" fill="white"/>
</svg>
