<svg width="57" height="57" viewBox="0 0 57 57" fill="none" xmlns="http://www.w3.org/2000/svg">
<circle cx="28.5" cy="28.5" r="28.5" fill="#0C0C0E"/>
<path d="M41.099 27.9912L29.8771 16.8961L29.8796 16.9013C28.6149 15.6337 26.948 14.9972 25.2891 15C23.6327 14.9972 21.9657 15.6337 20.7009 16.9013C19.4337 18.1658 18.7974 19.83 18.7998 21.4895C18.7974 23.1482 19.4336 24.8149 20.7009 26.0798L23.3493 28.6997C23.2695 28.6973 23.1895 28.6973 23.1099 28.6973C20.9379 28.6973 18.9648 29.2435 17.4886 30.1681C16.7517 30.6317 16.136 31.1908 15.6981 31.8425C15.2578 32.4919 15 33.2388 15 34.0272V38.4529C15 39.241 15.2578 39.9883 15.6981 40.6376C16.3577 41.6139 17.406 42.3889 18.6839 42.9332C19.9642 43.4765 21.4816 43.7828 23.1099 43.7857C25.2788 43.7828 27.2521 43.237 28.7281 42.312C29.4674 41.8509 30.0805 41.2895 30.521 40.6377C30.9592 39.9883 31.2167 39.241 31.2167 38.453V36.4771L31.9225 37.1757L31.9201 37.1701C33.1848 38.4373 34.8517 39.0742 36.5105 39.0714C38.1672 39.0742 39.8339 38.4373 41.0989 37.1729C42.3662 35.9052 43 34.2413 43 32.5819C43.0001 30.9227 42.3662 29.2584 41.099 27.9912ZM22.5611 23.3594C21.4869 22.2828 21.4869 20.5129 22.5764 19.4234C23.1019 18.8978 23.8026 18.6068 24.5499 18.6068L22.5611 23.3594ZM16.288 34.0272C16.2905 33.5197 16.4477 33.0356 16.7649 32.5612C17.0432 32.1469 17.4526 31.7498 17.9651 31.3971L27.8215 37.1652C27.5974 37.2885 27.3604 37.4046 27.1103 37.5102C25.9795 37.9919 24.5987 38.2753 23.11 38.2753C21.1208 38.2781 19.3279 37.7678 18.0633 36.9717C17.4296 36.5727 16.9298 36.1059 16.5948 35.6065C16.4709 35.4207 16.3681 35.2329 16.2881 35.0398L16.288 34.0272ZM29.9287 38.453C29.9287 38.9605 29.7689 39.445 29.4523 39.9186C28.9779 40.6247 28.1357 41.2789 27.0306 41.7482C25.928 42.217 24.5729 42.4979 23.1099 42.4979C21.157 42.4979 19.3976 41.9953 18.1741 41.2226C17.5608 40.8384 17.0815 40.3878 16.7649 39.9186C16.4477 39.445 16.2905 38.9605 16.288 38.453V36.6267C16.9114 37.3168 17.7617 37.8916 18.7637 38.3164C20.0157 38.8476 21.5072 39.1515 23.1099 39.1515C25.2454 39.1515 27.1826 38.6126 28.6199 37.7109C29.1248 37.3969 29.5654 37.0337 29.9287 36.629V38.453ZM29.9287 35.0398C29.9134 35.0784 29.8977 35.1143 29.8771 35.153C29.8078 35.3078 29.7226 35.4569 29.622 35.6064C29.4057 35.9309 29.1145 36.2377 28.7694 36.5235L19.011 30.8147C19.0703 30.7889 19.1271 30.7578 19.1862 30.7348C20.2888 30.2661 21.644 29.9851 23.11 29.9851C23.6868 29.9851 24.2461 30.029 24.7791 30.1117C26.0518 30.3048 27.18 30.7167 28.043 31.2576C28.1486 31.3221 28.2492 31.3919 28.3443 31.4616C28.8106 31.7937 29.1791 32.1621 29.4393 32.5463C29.4445 32.5511 29.4496 32.5563 29.4524 32.5612C29.769 33.0356 29.9288 33.5197 29.9288 34.0272V35.0398H29.9287ZM40.0066 36.0776C39.038 37.0442 37.778 37.5255 36.5106 37.5255C35.2406 37.5255 33.9811 37.0462 33.0123 36.0776L33.0097 36.0752L31.2168 34.3029V34.0272C31.2168 33.2388 30.9592 32.4918 30.5211 31.8425C29.9701 31.0311 29.1534 30.3588 28.1589 29.8437C28.2826 29.5216 28.4396 29.1709 28.6329 28.811C29.1791 27.7852 29.9983 26.6723 31.083 25.8173C32.1622 24.9645 33.4892 24.3566 35.1301 24.2635L40.004 29.0834H40.0066C40.9726 30.052 41.4543 31.3145 41.4543 32.5817C41.4543 33.8494 40.9726 35.1119 40.0066 36.0776Z" fill="white"/>
</svg>
