<svg width="87" height="87" viewBox="0 0 87 87" fill="none" xmlns="http://www.w3.org/2000/svg">
<circle cx="43.5" cy="43.5" r="42.5" stroke="#AEB4C1" stroke-width="2"/>
<path d="M48.4444 47.9286H55.1111M48.4444 39.0714H55.1111M37.3333 37.9643V35.75M37.3333 37.9643H41.778M37.3333 37.9643C33.3359 37.9642 32.893 38.9213 32.8891 40.9148C32.8852 42.9083 32.8891 43.5 37.3335 43.5C41.778 43.5 41.778 43.955 41.778 46.0834C41.778 47.6828 41.778 49.0357 37.3335 49.0357M37.3335 49.0357L37.3333 51.25M37.3335 49.0357H32.8891M31.1111 59H56.8889C59.378 59 60.6227 59 61.5733 58.5173C62.4096 58.0928 63.0896 57.4152 63.5156 56.582C64 55.6347 64 54.3945 64 51.9143V35.0857C64 32.6055 64 31.3654 63.5156 30.418C63.0896 29.5847 62.4096 28.9073 61.5733 28.4827C60.6227 28 59.378 28 56.8889 28H31.1111C28.622 28 27.3774 28 26.4267 28.4827C25.5904 28.9073 24.9105 29.5847 24.4844 30.418C24 31.3654 24 32.6055 24 35.0857V51.9143C24 54.3945 24 55.6347 24.4844 56.582C24.9105 57.4152 25.5904 58.0928 26.4267 58.5173C27.3774 59 28.622 59 31.1111 59Z" stroke="#AEB4C1" stroke-width="4" stroke-linecap="round" stroke-linejoin="round"/>
</svg>
