<svg width="87" height="87" viewBox="0 0 87 87" fill="none" xmlns="http://www.w3.org/2000/svg">
<circle cx="43.5" cy="43.5" r="42.5" stroke="#AEB4C1" stroke-width="2"/>
<path d="M36.6578 39.7397H32.603V43.7948H36.6578V39.7397Z" fill="#AEB4C1"/>
<path d="M54.397 39.7397H50.3423V43.7948H54.397V39.7397Z" fill="#AEB4C1"/>
<path d="M48.4844 39.7397H44.4297V43.7948H48.4844V39.7397Z" fill="#AEB4C1"/>
<path d="M36.6578 46.0754H32.603V50.1305H36.6578V46.0754Z" fill="#AEB4C1"/>
<path d="M48.4844 46.0754H44.4297V50.1305H48.4844V46.0754Z" fill="#AEB4C1"/>
<path d="M42.5709 46.0754H38.5161V50.1305H42.5709V46.0754Z" fill="#AEB4C1"/>
<path d="M54.397 52.4111H50.3423V56.4662H54.397V52.4111Z" fill="#AEB4C1"/>
<path d="M48.4844 52.4111H44.4297V56.4662H48.4844V52.4111Z" fill="#AEB4C1"/>
<path d="M42.5709 52.4111H38.5161V56.4662H42.5709V52.4111Z" fill="#AEB4C1"/>
<path d="M58.1055 26.3867H54.8082V29.5481C54.8082 30.7276 53.8364 31.687 52.642 31.687H48.3367C47.1423 31.687 46.1705 30.7276 46.1705 29.5481V26.3867H40.8237V29.5183C40.8237 30.7143 39.8412 31.687 38.6335 31.687H34.3761C33.1684 31.687 32.1859 30.7143 32.1859 29.5183V26.3867H28.8886C26.7444 26.3867 25 28.1154 25 30.2401V58.9484C25 61.0731 26.7444 62.8018 28.8886 62.8018H58.1055C60.2529 62.8018 62 61.0731 62 58.9484V30.2401C62 28.1155 60.2529 26.3867 58.1055 26.3867ZM59.2124 58.8736C59.2124 59.5557 58.7541 60.0139 58.072 60.0139H28.928C28.2459 60.0139 27.7876 59.5557 27.7876 58.8736V36.1921H59.2124V58.8736Z" fill="#AEB4C1"/>
<path d="M34.3773 30.1689H38.6321C38.9924 30.1689 39.2855 29.8778 39.2855 29.5199V23.6331C39.2855 22.7326 38.5468 22 37.6386 22H35.3707C34.4626 22 33.7236 22.7325 33.7236 23.6331V29.5199C33.7237 29.8778 34.0168 30.1689 34.3773 30.1689Z" fill="#AEB4C1"/>
<path d="M48.3371 30.1689H52.6424C52.9889 30.1689 53.2707 29.8889 53.2707 29.5452V23.608C53.2707 22.7214 52.5433 22 51.6489 22H49.3306C48.4364 22 47.709 22.7214 47.709 23.608V29.5452C47.7089 29.8889 47.9908 30.1689 48.3371 30.1689Z" fill="#AEB4C1"/>
</svg>
