<svg width="22" height="21" viewBox="0 0 22 21" fill="none" xmlns="http://www.w3.org/2000/svg">
<path d="M8.75185 3.1558C9.06241 6.57194 7.92815 9.63866 5.71539 12.2652C4.50596 13.7008 3.4873 15.4217 1.91044 16.4825C1.4796 16.7723 0.665717 17.1892 1.77923 16.8855C3.22062 16.4924 4.59882 15.9356 6.02466 15.5078C7.76646 14.9853 9.61475 15.4931 11.2448 16.1451C12.7593 16.7509 13.9189 17.6504 15.2184 18.6005C15.7904 19.0187 16.2046 19.6547 16.746 20.0157C17.2185 20.3307 17.0389 19.7873 16.999 19.2191C16.881 17.5374 16.4794 16.05 16.9616 14.3738C17.583 12.2135 18.408 10.0681 19.5857 8.15097C19.8905 7.6547 20.1869 7.22529 20.6447 6.86703C20.6865 6.83433 21.3852 6.30483 21.2913 6.22975C21.1503 6.11691 20.375 6.43436 20.2417 6.45467C19.4581 6.57408 18.6508 6.52965 17.8612 6.52965C16.0805 6.52965 14.2382 6.62434 12.6224 5.75179C11.3435 5.0612 9.64144 4.2563 8.7706 3.04333C8.49429 2.65848 8.43323 1.64694 8.07708 1.46887" stroke="#0C0C0E" stroke-linecap="round"/>
</svg>
