<svg width="87" height="87" viewBox="0 0 87 87" fill="none" xmlns="http://www.w3.org/2000/svg">
<circle cx="43.5" cy="43.5" r="42.5" stroke="#AEB4C1" stroke-width="2"/>
<path d="M67.7612 34.3907L65.3323 33.0779L43.472 21.1432H43.2048C43.0559 21.0813 42.9014 21.0334 42.7433 21H42.2818H41.8446C41.6787 21.0334 41.5161 21.0813 41.3588 21.1432H41.0917L19.2313 33.0779C18.8575 33.2861 18.5466 33.588 18.3303 33.9528C18.114 34.3176 18 34.7323 18 35.1545C18 35.5768 18.114 35.9914 18.3303 36.3563C18.5466 36.7211 18.8575 37.023 19.2313 37.2312L25.2794 40.5251V51.8392C25.2794 53.7384 26.0471 55.5597 27.4136 56.9027C28.7801 58.2456 30.6336 59 32.5661 59H51.9975C53.9301 59 55.7835 58.2456 57.1501 56.9027C58.5166 55.5597 59.2843 53.7384 59.2843 51.8392V40.5251L64.1421 37.8518V44.6784C64.1421 45.3114 64.3981 45.9186 64.8536 46.3662C65.3091 46.8138 65.9269 47.0653 66.5711 47.0653C67.2153 47.0653 67.8331 46.8138 68.2886 46.3662C68.7441 45.9186 69 45.3114 69 44.6784V36.4673C68.9993 36.0444 68.8842 35.6292 68.6665 35.2643C68.4488 34.8994 68.1364 34.598 67.7612 34.3907ZM54.4265 51.8392C54.4265 52.4723 54.1705 53.0794 53.715 53.527C53.2595 53.9747 52.6417 54.2261 51.9975 54.2261H32.5661C31.9219 54.2261 31.3041 53.9747 30.8486 53.527C30.3931 53.0794 30.1372 52.4723 30.1372 51.8392V43.1746L41.0917 49.142L41.456 49.2852H41.6746C41.8762 49.3101 42.0802 49.3101 42.2818 49.2852C42.4834 49.3101 42.6874 49.3101 42.8891 49.2852H43.1077C43.2366 49.2585 43.3599 49.21 43.472 49.142L54.4265 43.1746V51.8392ZM42.2818 44.3442L25.4251 35.1307L42.2818 25.9171L59.1386 35.1307L42.2818 44.3442Z" fill="#AEB4C1"/>
</svg>
