<svg width="57" height="57" viewBox="0 0 57 57" fill="none" xmlns="http://www.w3.org/2000/svg">
<circle cx="28.5" cy="28.5" r="28.5" fill="white"/>
<g clip-path="url(#clip0_379_138)">
<path d="M28.1876 30.1875H34.2938C34.5829 31.3069 35.2702 32.2825 36.2271 32.9314C37.184 33.5802 38.3446 33.8578 39.4915 33.7122C40.6384 33.5665 41.6928 33.0075 42.4571 32.14C43.2214 31.2726 43.643 30.1561 43.643 29C43.643 27.8439 43.2214 26.7275 42.4571 25.86C41.6928 24.9925 40.6384 24.4335 39.4915 24.2879C38.3446 24.1422 37.184 24.4198 36.2271 25.0687C35.2702 25.7175 34.5829 26.6931 34.2938 27.8125H28.1876V18.3125H34.2938C34.5829 19.4319 35.2702 20.4075 36.2271 21.0564C37.184 21.7052 38.3446 21.9828 39.4915 21.8372C40.6384 21.6915 41.6928 21.1325 42.4571 20.265C43.2214 19.3976 43.643 18.2811 43.643 17.125C43.643 15.9689 43.2214 14.8525 42.4571 13.985C41.6928 13.1175 40.6384 12.5585 39.4915 12.4129C38.3446 12.2672 37.184 12.5448 36.2271 13.1937C35.2702 13.8425 34.5829 14.8181 34.2938 15.9375H28.1876C27.5579 15.9382 26.9543 16.1887 26.509 16.6339C26.0638 17.0792 25.8133 17.6828 25.8126 18.3125V27.8125H19.7063C19.4173 26.6931 18.7299 25.7175 17.7731 25.0687C16.8162 24.4198 15.6556 24.1422 14.5087 24.2879C13.3618 24.4335 12.3073 24.9925 11.5431 25.86C10.7788 26.7275 10.3572 27.8439 10.3572 29C10.3572 30.1561 10.7788 31.2726 11.5431 32.14C12.3073 33.0075 13.3618 33.5665 14.5087 33.7122C15.6556 33.8578 16.8162 33.5802 17.7731 32.9314C18.7299 32.2825 19.4173 31.3069 19.7063 30.1875H25.8126V39.6875C25.8133 40.3172 26.0638 40.9208 26.509 41.3661C26.9543 41.8113 27.5579 42.0618 28.1876 42.0625H34.2938C34.5829 43.1819 35.2702 44.1575 36.2271 44.8064C37.184 45.4552 38.3446 45.7328 39.4915 45.5872C40.6384 45.4415 41.6928 44.8825 42.4571 44.015C43.2214 43.1476 43.643 42.0311 43.643 40.875C43.643 39.7189 43.2214 38.6025 42.4571 37.735C41.6928 36.8675 40.6384 36.3085 39.4915 36.1629C38.3446 36.0172 37.184 36.2948 36.2271 36.9437C35.2702 37.5925 34.5829 38.5681 34.2938 39.6875H28.1876V30.1875ZM38.8751 26.625C39.3448 26.625 39.804 26.7643 40.1946 27.0253C40.5851 27.2862 40.8895 27.6572 41.0693 28.0911C41.2491 28.5251 41.2961 29.0026 41.2045 29.4634C41.1128 29.9241 40.8866 30.3472 40.5545 30.6794C40.2223 31.0115 39.7991 31.2377 39.3384 31.3294C38.8777 31.421 38.4002 31.374 37.9662 31.1942C37.5322 31.0145 37.1613 30.7101 36.9003 30.3195C36.6394 29.9289 36.5001 29.4697 36.5001 29C36.5008 28.3703 36.7513 27.7667 37.1965 27.3214C37.6418 26.8762 38.2454 26.6257 38.8751 26.625ZM38.8751 14.75C39.3448 14.75 39.804 14.8893 40.1946 15.1503C40.5851 15.4112 40.8895 15.7822 41.0693 16.2161C41.2491 16.6501 41.2961 17.1276 41.2045 17.5884C41.1128 18.0491 40.8866 18.4722 40.5545 18.8044C40.2223 19.1365 39.7991 19.3627 39.3384 19.4544C38.8777 19.546 38.4002 19.499 37.9662 19.3192C37.5322 19.1395 37.1613 18.8351 36.9003 18.4445C36.6394 18.0539 36.5001 17.5947 36.5001 17.125C36.5008 16.4953 36.7513 15.8917 37.1965 15.4464C37.6418 15.0012 38.2454 14.7507 38.8751 14.75ZM15.1251 31.375C14.6554 31.375 14.1962 31.2357 13.8056 30.9748C13.415 30.7138 13.1106 30.3429 12.9309 29.9089C12.7511 29.4749 12.7041 28.9974 12.7957 28.5367C12.8874 28.076 13.1136 27.6528 13.4457 27.3206C13.7779 26.9885 14.201 26.7623 14.6617 26.6706C15.1225 26.579 15.6 26.626 16.034 26.8058C16.4679 26.9856 16.8389 27.29 17.0998 27.6805C17.3608 28.0711 17.5001 28.5303 17.5001 29C17.4994 29.6297 17.2489 30.2333 16.8037 30.6786C16.3584 31.1238 15.7548 31.3743 15.1251 31.375ZM38.8751 38.5C39.3448 38.5 39.804 38.6393 40.1946 38.9003C40.5851 39.1612 40.8895 39.5322 41.0693 39.9661C41.2491 40.4001 41.2961 40.8776 41.2045 41.3384C41.1128 41.7991 40.8866 42.2222 40.5545 42.5544C40.2223 42.8865 39.7991 43.1127 39.3384 43.2044C38.8777 43.296 38.4002 43.249 37.9662 43.0692C37.5322 42.8895 37.1613 42.5851 36.9003 42.1945C36.6394 41.8039 36.5001 41.3447 36.5001 40.875C36.5008 40.2453 36.7513 39.6417 37.1965 39.1964C37.6418 38.7512 38.2454 38.5007 38.8751 38.5Z" fill="#0C0C0E"/>
</g>
<defs>
<clipPath id="clip0_379_138">
<rect width="38" height="38" fill="white" transform="translate(8 10)"/>
</clipPath>
</defs>
</svg>
